<svg width="56" height="56" viewBox="0 0 56 56" fill="none" xmlns="http://www.w3.org/2000/svg">
<path d="M28 7.25146C17.7483 7.25146 9.43765 16.1906 9.43765 26.4423V51.6932C10.1454 53.0192 11.5421 53.9219 13.1501 53.9219C14.758 53.9219 16.1548 53.0192 16.8626 51.6933C17.5703 53.0192 18.9671 53.9219 20.5751 53.9219C22.1831 53.9219 23.5798 53.0192 24.2876 51.6933C24.9953 53.0192 26.392 53.9219 28 53.9219C29.5382 53.9219 30.8813 53.0949 31.6146 51.8626C32.3481 53.0949 33.6912 53.9219 35.2293 53.9219C36.8373 53.9219 38.234 53.0192 38.9418 51.6933H39.1375C39.8452 53.0192 41.2419 53.9219 42.8499 53.9219C44.4578 53.9219 45.8546 53.0192 46.5624 51.6933V26.4424C46.5624 16.1907 38.2517 7.25146 28 7.25146Z" fill="#E7EDF1"/>
<path d="M20.7708 23.9531V27.6304H20.7653C20.7653 27.6359 20.7708 27.6379 20.7708 27.6407C20.7708 29.0849 19.599 30.2565 18.155 30.2565C16.7109 30.2565 15.5391 29.0848 15.5391 27.6407V27.6304H15.528V23.9531H15.5595C15.6762 22.6136 16.7849 21.5596 18.1551 21.5596C19.5214 21.5596 20.6301 22.6136 20.7451 23.9531H20.7708ZM40.4465 23.9531C40.3314 22.6136 39.2228 21.5596 37.8565 21.5596C36.4863 21.5596 35.3777 22.6136 35.2609 23.9531H35.2294V27.6304H35.2405V27.6407C35.2405 29.0849 36.4123 30.2565 37.8563 30.2565C39.3004 30.2565 40.4722 29.0848 40.4722 27.6407C40.4722 27.6379 40.4667 27.636 40.4667 27.6304H40.4722V23.9531H40.4465Z" fill="#2B3B47"/>
<path d="M30.2687 36.6727L30.3152 36.8048L30.4379 37.1782L30.6137 37.7585C30.6786 37.9826 30.7498 38.2353 30.823 38.5111C30.9021 38.8069 30.9775 39.1038 31.0492 39.4016C31.1274 39.7176 31.2017 40.0508 31.2797 40.3955C31.3532 40.7402 31.4307 41.0964 31.5005 41.4583C31.5749 41.8202 31.6391 42.1879 31.7078 42.5556C31.7702 42.9234 31.8357 43.291 31.8917 43.653C31.9465 44.0149 32.0066 44.3712 32.0498 44.7159C32.0936 45.0607 32.1255 45.3938 32.1461 45.7098C32.1644 46.0258 32.1761 46.3245 32.1749 46.6003C32.1763 46.8761 32.1652 47.1289 32.1514 47.3529C32.1358 47.577 32.1165 47.7723 32.0941 47.9332C32.052 48.255 32.0027 48.4387 32.0027 48.4387C31.4108 50.6494 29.1389 51.9617 26.9282 51.3698C25.4484 50.9737 24.3701 49.8181 23.997 48.4387C23.997 48.4387 23.9478 48.2548 23.9057 47.9332C23.8833 47.7723 23.8639 47.5769 23.8484 47.3529C23.8346 47.1288 23.8233 46.8761 23.8249 46.6003C23.8237 46.3246 23.8354 46.0258 23.8536 45.7098C23.8743 45.3938 23.9061 45.0605 23.95 44.7159C23.9933 44.3712 24.0533 44.015 24.108 43.653C24.164 43.2911 24.2296 42.9234 24.292 42.5556C24.3606 42.1879 24.4248 41.8203 24.4993 41.4583C24.5691 41.0964 24.6467 40.7401 24.7201 40.3955C24.7981 40.0507 24.8724 39.7176 24.9506 39.4016C25.0257 39.0856 25.1039 38.7869 25.1768 38.5111C25.2437 38.2594 25.3135 38.0085 25.3861 37.7585L25.5619 37.1782L25.6846 36.8048L25.7311 36.6727C26.1714 35.4197 27.5441 34.761 28.7971 35.2013C29.5091 35.4514 30.033 36.0136 30.2687 36.6727ZM27.4942 14.1139C28.0848 14.3932 28.7901 14.141 29.0694 13.5504C29.0694 13.5504 29.0882 13.5107 29.1184 13.4363C29.1489 13.3619 29.1949 13.2528 29.2452 13.1139C29.2982 12.975 29.3599 12.8063 29.424 12.6128C29.4884 12.4193 29.5585 12.201 29.6276 11.9629C29.7029 11.7081 29.773 11.4517 29.8378 11.194C29.9075 10.9211 29.9756 10.6335 30.0391 10.3357C30.0726 10.1869 30.1029 10.0356 30.1328 9.88248C30.1641 9.72921 30.1933 9.57441 30.2203 9.41808C30.2786 9.10559 30.326 8.78808 30.3781 8.47056C30.4243 8.15304 30.4737 7.83553 30.5125 7.52304C30.5552 7.21056 30.5894 6.903 30.623 6.60528C30.6543 6.30767 30.6819 6.0199 30.7041 5.74701C30.7259 5.47412 30.7443 5.21622 30.757 4.97811C30.7834 4.50189 30.792 4.10497 30.7917 3.82715C30.7905 3.54934 30.7832 3.39064 30.7832 3.39064C30.7134 1.97303 29.5749 0.802169 28.1282 0.735669C26.5911 0.664903 25.2878 1.85359 25.217 3.39064C25.217 3.39064 25.2097 3.54934 25.2085 3.82715C25.2083 4.10497 25.2168 4.50178 25.2433 4.97811C25.2559 5.21622 25.2743 5.47423 25.2961 5.74701C25.3183 6.0199 25.346 6.30756 25.3772 6.60528C25.4108 6.90289 25.445 7.21045 25.4877 7.52304C25.5265 7.83553 25.576 8.15304 25.6221 8.47056C25.6742 8.78808 25.7217 9.10559 25.78 9.41808C25.8069 9.57448 25.8361 9.72928 25.8675 9.88248C25.8973 10.0356 25.9276 10.187 25.9611 10.3357C26.0225 10.6231 26.0896 10.9093 26.1624 11.194C26.2313 11.4669 26.3019 11.7248 26.3727 11.9629C26.4362 12.1809 26.5041 12.3975 26.5762 12.6128C26.6403 12.8063 26.702 12.975 26.755 13.1139C26.8055 13.2528 26.8513 13.3619 26.8818 13.4363C26.912 13.5107 26.9308 13.5504 26.9308 13.5504C27.0477 13.7978 27.2468 13.997 27.4942 14.1139Z" fill="#FF473E"/>
<path d="M19.3171 32.9454C19.3171 31.5974 23.2045 31.6893 28 31.6893C32.7954 31.6893 36.6828 31.5974 36.6828 32.9454C36.6828 34.2933 30.9258 38.6581 28 38.6581C25.0742 38.6581 19.3171 34.2933 19.3171 32.9454Z" fill="#FFB636"/>
<path d="M36.6828 32.6416C36.6828 33.9969 32.7954 34.5644 28 34.5644C23.2045 34.5644 19.3171 33.9969 19.3171 32.6416C19.3171 31.2864 25.0742 27.0986 28 27.0986C30.9258 27.0986 36.6828 31.2864 36.6828 32.6416Z" fill="#FFD833"/>
</svg>
