<svg width="56" height="56" viewBox="0 0 56 56" fill="none" xmlns="http://www.w3.org/2000/svg">
<path d="M32.6769 11.6775C32.6769 11.6775 35.1662 5.39935 38.0362 5.9506C41.2387 6.56747 39.4537 14.1406 39.4537 14.1406L32.6769 11.6775ZM24.1806 10.6275C24.1806 10.6275 21.1619 4.65122 18.6375 5.51747C16.1131 6.38372 17.9594 14.2631 17.9594 14.2631L24.1806 10.6275Z" fill="#FFB903"/>
<path d="M20.9738 11.0604C20.9738 11.0604 21.8357 10.0148 29.0413 10.2598C36.2469 10.5048 40.2501 13.0336 40.2501 13.0336C40.2501 13.0336 42.7351 11.1304 45.1588 10.3036C48.7594 9.07855 53.6026 11.1392 53.9832 11.9267C54.2763 12.5261 52.6269 17.8636 50.4744 19.6879C48.0726 21.7223 45.4869 21.5954 45.4869 21.5954C45.4869 21.5954 44.9182 25.3361 44.8088 28.1229C44.7476 29.7242 44.9663 31.3954 45.2419 32.2486C45.7976 33.9723 46.1126 35.1579 46.3882 37.2711C46.6201 39.0342 46.6594 40.7448 46.6594 40.7448L18.0819 33.5392L20.9738 11.0604Z" fill="#DFDFDF"/>
<path d="M16.9706 33.0486C16.9706 33.0486 21.4462 31.8586 22.6362 31.2199C23.6512 30.6774 29.3518 28.1792 29.7806 20.4836C30.2093 12.788 24.7756 10.548 24.0362 10.3599C23.2968 10.1761 20.6281 10.8936 19.0662 11.6724C18.4012 12.0049 16.9706 12.9674 16.9706 12.9674C16.9706 12.9674 14.1356 10.0099 9.70372 9.58111C5.27184 9.14799 1.94247 11.4886 1.88122 11.7992C1.81997 12.1055 3.54372 18.1561 6.69809 20.2605C7.61684 20.873 8.79809 21.1486 9.60747 21.258C11.725 21.5467 12.5343 21.2842 12.5343 21.2842C12.5343 21.2842 12.2281 24.548 12.1668 26.2105C12.1056 27.873 12.0706 30.2224 11.8781 31.9199C11.7556 33.0092 10.2768 35.9011 10.2375 38.0361C10.2112 39.4536 16.9706 33.0486 16.9706 33.0486Z" fill="#BC8954"/>
<path d="M28.7612 32.5545C34.0812 32.6814 35.3193 31.7539 38.9462 31.9989C42.5731 32.2439 47.1931 36.0633 46.7556 41.5452C46.3181 47.027 41.7593 50.9689 36.8856 52.0758C32.0118 53.1827 21.1399 53.3095 16.0168 50.5358C10.8718 47.7533 9.76932 44.0083 9.70807 40.4952C9.64682 36.982 12.2674 31.9377 17.9506 31.3252C23.6337 30.7127 23.5112 32.432 28.7612 32.5545ZM42.84 17.3427C41.93 15.7502 42.84 13.2345 45.7143 12.5783C48.5887 11.922 51.4631 13.2345 51.4631 13.2345C51.4631 13.2345 50.5837 16.6033 48.5887 17.9158C46.9043 19.027 44.1525 19.6395 42.84 17.3427ZM10.9768 12.7445C8.41745 11.9483 5.08807 12.9852 5.08807 12.9852C5.08807 12.9852 5.19307 14.4639 6.24307 15.8945C6.87307 16.752 7.8137 17.7802 9.3012 18.2702C12.7924 19.4208 14.0962 17.3427 14.3806 16.3977C14.6737 15.4527 14.1399 13.7289 10.9768 12.7445Z" fill="#FFD3B0"/>
<path d="M23.9876 25.3981C24.2237 23.7599 23.3739 22.2819 22.0896 22.0968C20.8054 21.9118 19.5729 23.0899 19.3369 24.7281C19.1009 26.3663 19.9507 27.8443 21.2349 28.0293C22.5192 28.2144 23.7516 27.0363 23.9876 25.3981Z" fill="#0A0A0A"/>
<path d="M37.054 28.2245C38.3361 28.0249 39.1687 26.5354 38.9138 24.8976C38.6588 23.2598 37.4128 22.0938 36.1307 22.2934C34.8487 22.493 34.016 23.9825 34.271 25.6203C34.5259 27.2581 35.7719 28.4241 37.054 28.2245Z" fill="#0A0A0A"/>
<path d="M31.9988 43.5401C30.6863 42.512 31.4213 39.7995 33.6 38.2857C35.9013 36.6845 38.2944 37.2707 38.7319 38.2463C39.305 39.5195 38.6488 40.2982 37.9531 40.832C37.2925 41.3351 36.3913 41.2432 35.8181 41.5713C35.245 41.8995 34.9956 42.7613 34.2169 43.4613C33.495 44.1045 32.4363 43.877 31.9988 43.5401ZM17.71 38.4476C18.1213 36.6013 21.0656 36.6713 23.17 38.2813C25.3925 39.9832 25.8388 42.3895 24.8938 43.2076C23.8175 44.1438 22.7763 43.6757 22.1288 43.1157C21.4988 42.5732 21.2756 42.1357 20.7856 41.6851C20.3 41.2388 19.4294 41.1076 18.5281 40.5782C17.6969 40.0926 17.535 39.2351 17.71 38.4476Z" fill="#2E2F31"/>
</svg>
