<svg width="56" height="56" viewBox="0 0 56 56" fill="none" xmlns="http://www.w3.org/2000/svg">
<path d="M29.1682 21.6517C29.1682 21.6517 31.3863 20.6674 33.3551 20.2955C35.3238 19.928 36.9294 19.9892 36.9294 19.9892C36.9294 19.9892 38.6532 17.4649 38.8982 16.1086C39.1432 14.7524 39.1738 13.4924 39.2044 13.2736C39.2788 12.7486 42.7788 12.718 43.5138 14.8136C44.2532 16.9092 43.3301 19.4336 42.7132 20.3567C42.0963 21.2799 41.4182 21.958 41.4182 21.958C41.4182 21.958 44.4369 24.793 45.1151 27.9342C45.7932 31.0755 45.6094 35.6955 45.6094 35.6955C45.6094 35.6955 45.4257 39.2042 43.7019 39.4536C41.9782 39.6986 39.8826 38.128 39.5763 37.7605C39.2701 37.393 38.6751 36.3561 37.6688 36.6842C36.5313 37.0517 36.2382 38.3642 36.0063 39.5192C35.7176 40.9367 35.2888 44.5505 35.2888 44.5505C35.2888 44.5505 33.2369 45.373 32.0032 45.1849C30.7694 45.0011 29.2294 43.5224 29.2294 43.5224C29.2294 43.5224 29.3519 41.6761 28.7351 41.3042C28.1182 40.9324 27.5013 41.9824 27.5013 41.9824L25.0382 44.6905L21.6519 41.9167C21.6519 41.9167 21.4069 40.683 21.0351 40.0705C20.6676 39.4536 19.9282 38.1017 19.6788 37.1742C19.0663 34.8949 19.2501 30.5242 19.2501 30.5242L15.4919 12.1711L16.4151 11.3092C16.4151 11.3092 17.2769 6.87299 18.6332 4.96549C19.9894 3.05799 21.0963 2.56361 21.8357 2.19174C22.5751 1.81986 24.8544 1.57486 24.8544 2.19174C24.8544 2.80861 23.8088 3.60924 23.1919 4.59361C22.5751 5.57799 21.8969 6.99549 21.5294 8.22924C21.1619 9.46299 20.7507 10.9374 20.7507 10.9374L22.0851 11.2436C22.0851 11.2436 22.8244 9.45861 23.5026 8.53549C24.1807 7.61236 25.1344 6.34799 26.3069 5.45549C27.3001 4.69861 28.6782 3.91549 30.2182 3.91549C31.7582 3.91549 33.7926 4.34861 33.6044 5.48611C33.5038 6.10736 32.3401 5.82299 31.1719 6.59299C29.7501 7.52924 28.2144 9.08674 27.0769 11.703C25.9394 14.3192 25.5369 15.4611 25.5369 15.4611C25.5369 15.4611 28.5251 18.2655 28.8313 19.2192C29.1376 20.173 29.1682 21.6517 29.1682 21.6517Z" fill="#B68859"/>
<path d="M15.6187 30.6864C15.6187 30.6864 18.1255 32.2702 19.2324 32.3271C20.9343 32.4189 23.4412 31.4127 25.0118 29.6889C26.5824 27.9652 27.8774 25.4539 27.6499 22.3914C27.453 19.7533 26.5518 18.7864 26.5518 18.7864C26.5518 18.7864 28.1224 20.3264 30.4018 20.1427C32.6812 19.9589 34.5274 18.5721 35.2362 17.1852C35.7962 16.0914 36.3124 14.7527 35.9755 14.5077C35.6387 14.2627 34.5055 14.5077 34.5055 14.5077L30.2137 16.4458L22.8549 16.9402L15.1549 27.9346L15.6187 30.6864ZM9.70366 13.1952C9.39741 13.4052 9.85678 14.7964 10.9374 15.6277C12.018 16.4589 13.5537 16.7039 13.5537 16.7039L15.833 13.5933C15.833 13.5933 10.2899 12.7927 9.70366 13.1952Z" fill="#6D4938"/>
<path d="M29.2075 42.8621C29.2075 42.8621 30.4588 44.0127 32.2132 43.8596C33.9675 43.7064 35.5513 42.5777 35.5513 42.5777C35.5513 42.5777 35.2013 46.1696 35.1707 46.8477C35.14 47.5258 35.0788 49.5164 35.0788 49.5164C35.0788 49.5164 32.8607 51.8964 31.6619 51.6821C30.4588 51.4677 28.7875 49.3633 28.8182 48.9608C28.8488 48.5583 29.1069 46.7558 29.1682 45.8283C29.2294 44.9052 29.2075 42.8621 29.2075 42.8621ZM24.64 42.3152C26.5169 42.1839 27.9344 41.4621 27.9344 41.4621C27.9344 41.4621 28.035 44.0914 27.9957 44.7871C27.9257 46.0033 27.8294 47.4558 27.7069 47.8277C27.5844 48.1952 23.59 48.7202 23.59 48.7202C23.59 48.7202 21.6519 46.9964 21.6519 46.9046C21.6519 46.8127 21.7525 45.5002 21.7963 44.5246C21.8269 43.8158 21.6125 41.6108 21.6125 41.6108C21.6125 41.6108 22.855 42.4421 24.64 42.3152ZM39.3925 37.5246C39.3925 37.5246 40.7182 37.6689 41.6107 37.5771C42.5032 37.4852 44.3494 36.8071 44.8132 36.5008C45.2769 36.1946 45.6138 35.7002 45.6138 35.7002C45.6138 35.7002 45.4301 39.5196 45.4607 40.2589C45.4913 40.9983 45.4913 42.7527 45.4913 42.7527C45.4913 42.7527 44.0432 45.0933 42.5032 45.2464C40.9632 45.3996 39.3925 42.5558 39.3925 42.5558C39.3925 42.5558 39.62 41.0552 39.62 40.1321C39.6157 39.2089 39.3925 37.5246 39.3925 37.5246Z" fill="#855B52"/>
<path d="M31.6094 50.0458C33.2369 50.1901 35.1094 49.3064 35.1094 49.3064C35.1094 49.3064 35.2625 52.1108 34.8338 52.9201C34.4663 53.6201 33.3331 54.377 30.555 53.9264C28.7525 53.6333 28.5338 52.5658 28.4288 51.892C28.3281 51.2139 28.7963 48.8733 28.7963 48.8733C28.7963 48.8733 29.5488 49.862 31.6094 50.0458ZM42.4725 43.4789C43.7675 43.4351 45.4913 42.7483 45.4913 42.7483C45.4913 42.7483 45.5831 45.487 44.5375 46.4451C43.3344 47.5433 40.4819 47.2064 39.6813 46.3095C38.8806 45.417 39.3925 42.4683 39.3925 42.4683C39.3925 42.4683 40.7138 43.5401 42.4725 43.4789ZM24.4869 47.552C26.0006 47.6133 27.8338 47.0708 27.8338 47.0708C27.8338 47.0708 28.0613 50.3783 26.5213 50.9514C24.885 51.5639 22.7456 51.4239 21.9013 50.3564C21.2931 49.5864 21.6256 46.782 21.6256 46.782C21.6256 46.782 22.9163 47.4908 24.4869 47.552Z" fill="#46484A"/>
<path d="M17.373 14.385C17.6749 14.5644 18.2962 12.6919 22.2687 12.7225C26.6437 12.7531 28.9493 14.8794 29.2905 14.91C29.6274 14.9406 31.968 14.91 32.7074 14.8487C33.4468 14.7875 34.7418 14.2013 34.7112 14.6344C34.6805 15.0675 34.1862 17.4387 32.003 18.0512C29.8155 18.6681 26.123 17.3425 25.4143 17.2812C24.7055 17.22 24.0887 17.2812 24.1499 18.3575C24.2112 19.4337 16.113 24.3031 16.113 24.3031C16.113 24.3031 10.1893 21.5425 10.0974 21.2013C10.0055 20.8644 10.6705 19.9675 11.2174 19.1275C11.9087 18.06 12.263 16.8787 12.6349 16.2619C13.0024 15.645 13.5887 14.8444 13.5887 14.8444C13.5887 14.8444 12.438 14.9362 11.6812 14.6081C11.1605 14.385 9.86555 13.5188 9.8043 13.2125C9.74305 12.9063 11.2524 13.2431 12.4818 13.1206C13.7155 12.9981 16.0212 11.7031 16.0212 11.7031C16.0212 11.7031 16.7912 12.32 17.0055 12.9062C17.2199 13.4925 17.2199 14.2931 17.373 14.385Z" fill="#855B52"/>
<path d="M12.0444 28.9538C12.0444 28.9538 11.69 30.3101 11.9 31.7888C12.0663 32.9482 12.9369 34.0682 13.09 34.4663C13.2431 34.8645 13.5231 35.792 13.4925 36.0982C13.4619 36.4045 13.8819 36.4788 13.9738 36.2513C14.0875 35.9757 13.965 35.5907 14.28 35.6651C14.63 35.7482 14.28 36.4263 14.7306 36.4438C15.2031 36.4657 14.8838 35.827 15.225 35.827C15.5838 35.827 15.2644 36.5576 15.7806 36.5445C16.2531 36.5357 15.8113 35.897 16.2619 35.9101C16.6294 35.9188 16.3231 36.5882 16.835 36.5138C17.1238 36.4745 16.7869 35.7876 17.1631 35.7045C17.4913 35.6345 17.3163 36.3214 17.6969 36.177C17.9419 36.0851 18.025 35.4463 17.9331 34.707C17.8413 33.9676 17.5656 32.922 17.4081 32.0776C17.255 31.2376 17.08 30.3407 17.0713 29.5401C17.0625 28.7395 17.0494 27.8032 17.0494 27.8032L12.0444 28.9538Z" fill="#46484A"/>
<path d="M17.6925 21.8795C17.9331 21.9013 18.8431 20.8951 19.2544 20.1776C19.6656 19.4601 20.755 17.8763 22.3563 17.6926C24.0013 17.5045 24.9638 18.3707 25.3531 19.727C25.7119 20.9782 25.375 22.4176 23.73 23.1963C22.1463 23.9488 21.5338 23.647 20.1994 24.0363C19.4906 24.242 18.3925 24.8588 18.3313 24.9376C18.27 25.0207 18.6944 27.9695 16.3625 29.247C14.4113 30.3145 11.4144 29.9032 9.8744 27.9738C8.18565 25.8563 8.50065 22.6757 9.7519 21.1357C10.99 19.6132 12.4819 19.0576 14.6781 19.7007C17.1369 20.4226 17.465 21.8576 17.6925 21.8795Z" fill="#FFF3DD"/>
<path d="M24.1589 20.8118C24.1589 21.713 23.5857 22.5355 22.457 22.5574C21.4901 22.5749 21.1139 21.7743 21.0832 20.873C21.0439 19.7224 21.8664 19.1449 22.6845 19.1274C23.7476 19.1055 24.1589 19.9105 24.1589 20.8118ZM11.1214 23.0868C11.1214 23.0868 12.7226 22.2074 12.9239 22.1024C13.1251 21.9974 13.6457 21.8093 13.9257 22.2424C14.2014 22.6755 13.7551 23.0605 13.4007 23.2136C13.0464 23.3668 11.5545 24.2768 11.5545 24.2768C11.5545 24.2768 11.3839 25.4011 11.537 25.5236C11.9482 25.8518 12.5695 26.0311 13.077 25.9874C13.5845 25.9393 13.987 25.7249 14.1401 25.6943C14.2932 25.6636 14.7264 25.6461 14.8182 25.9568C14.9101 26.263 14.6914 26.6218 14.3107 26.8055C13.8557 27.0199 13.4007 27.2474 12.6307 27.1118C12.0314 27.0068 11.5545 26.8668 11.2745 26.6786C10.9989 26.4949 10.7057 26.1536 10.7057 26.1536C10.7057 26.1536 10.2901 26.6611 9.90512 26.648C9.52012 26.6305 9.02575 26.3855 9.01262 26.3418C8.99512 26.2936 8.48762 25.8955 8.71949 25.4624C8.95137 25.0293 9.47199 25.6155 9.79574 25.6636C10.1195 25.7118 10.3207 25.493 10.3514 25.388C10.382 25.2786 10.3689 24.0799 10.3689 24.0799C10.3689 24.0799 9.67762 23.1874 9.52012 23.0343C9.36699 22.8811 8.9645 22.3736 9.38012 22.063C9.79575 21.7524 10.0714 22.063 10.1807 22.1549C10.2901 22.2468 11.1214 23.0868 11.1214 23.0868Z" fill="#2E2E2E"/>
</svg>
