<svg width="56" height="56" viewBox="0 0 56 56" fill="none" xmlns="http://www.w3.org/2000/svg">
<path d="M29.6581 6.2561C29.6581 6.2561 31.6444 8.11985 34.6763 9.30548C38.2156 10.6924 44.2575 9.89173 45.7319 12.6611C47.2719 15.5574 44.0869 18.8824 44.625 20.6061C45.1544 22.308 50.3388 22.6011 50.9688 26.5824C51.6163 30.6774 48.3044 32.3705 48.6281 33.7267C49.0044 35.2974 52.7231 35.9142 52.815 38.8367C52.885 41.1161 50.7806 43.2161 50.6013 44.6249C50.295 47.0005 51.8263 48.2255 50.9381 50.5399C50.4438 51.8261 49.245 52.4473 48.3831 52.6355C47.5213 52.8236 42.0394 44.2574 42.0394 44.2574L28.735 7.6736L29.6581 6.2561Z" fill="#845846"/>
<path d="M21.49 13.9343C21.49 13.9343 16.1525 17.6312 13.5669 20.5843C10.9813 23.5374 7.94064 27.0724 7.73501 27.2343C7.52939 27.4005 3.87626 29.3299 3.01439 32.7774C2.44126 35.0655 3.75376 38.3599 5.68314 39.4274C7.61251 40.4949 9.48064 40.3024 11.6375 39.1387C13.7725 37.988 15.2906 36.798 15.2906 36.798C15.2906 36.798 19.5913 36.8462 21.3281 36.7149C23.5463 36.5487 26.0925 36.0587 26.0925 36.0587C26.0925 36.0587 24.9681 40.403 24.6138 43.1987C24.1719 46.6855 22.89 51.7037 23.2181 52.1149C23.5463 52.5262 26.6788 53.3399 31.3075 53.6768C36.6319 54.0618 43.2775 53.5674 44.8744 53.2918C46.6463 52.9855 48.2256 52.8149 48.3919 52.5087C48.5581 52.2024 47.8188 46.8649 47.285 43.1155C46.1869 35.4243 42.3063 25.1474 40.95 22.5618C39.5938 19.9762 38.0056 17.4255 35.9931 15.2468C33.9806 13.068 32.6244 12.3724 32.6244 12.3724C32.6244 12.3724 33.075 11.2655 32.9131 9.94866C32.7513 8.63178 30.6556 4.44491 30.2444 3.66616C29.8331 2.88741 29.1506 1.43928 28.2844 1.50928C27.5144 1.57053 26.8363 4.11678 26.3463 5.80116C25.8563 7.48553 24.5788 11.178 24.5788 11.178L21.49 13.9343Z" fill="#FEAF5F"/>
<path d="M11.5106 9.99266C10.8194 10.4214 11.8431 13.6852 13.5231 15.3302C15.4131 17.1764 18.3356 18.2877 22.1156 17.2202C25.8913 16.1527 26.8275 13.7289 26.8275 13.7289C26.8275 13.7289 25.5938 12.2939 25.515 10.6095C25.4363 8.92516 26.215 6.33953 26.215 6.33953C26.215 6.33953 24.9813 5.76641 22.7675 6.66766C20.5538 7.56891 17.3294 11.0514 15.7413 11.2658C13.6063 11.5545 12.3725 9.45891 11.5106 9.99266Z" fill="#825948"/>
<path d="M23.575 25.9876C24.6384 25.9202 25.4351 24.8335 25.3545 23.5603C25.2738 22.287 24.3464 21.3095 23.2829 21.3768C22.2195 21.4442 21.4228 22.5309 21.5034 23.8042C21.5841 25.0774 22.5115 26.0549 23.575 25.9876Z" fill="#00000D"/>
<path d="M29.6581 32.8298C28.2406 33.9979 26.6262 34.8554 25.6025 35.4067C24.8631 35.8092 23.2837 36.3429 22.8812 36.4654C22.4787 36.5879 23.8875 36.6011 24.6969 36.6186C26.1144 36.6536 29.5006 36.2817 30.8569 35.4504C32.2131 34.6192 33.2675 31.6529 33.4862 30.8523C33.7006 30.0517 34.6544 26.9717 33.7925 26.9411C32.9306 26.9104 31.3731 31.4167 29.6581 32.8298Z" fill="#CD935F"/>
<path d="M14.0481 21.5293C14.0481 21.5293 10.9681 24.9768 10.4738 25.5324C9.97938 26.0881 8.50501 28.3062 8.50501 28.3062C8.50501 28.3062 6.25626 29.1374 5.14938 30.5243C4.04251 31.9112 3.36438 34.1599 4.28751 36.2818C5.21063 38.4037 6.81188 39.9481 9.39751 39.2087C12.215 38.4037 14.665 35.9449 14.665 35.9449C14.665 35.9449 18.3925 36.0981 19.53 36.0368C20.6675 35.9756 25.2263 34.5274 25.2263 34.5274L16.0169 19.3462L14.0481 21.5293Z" fill="url(#paint0_radial_62_312)"/>
<path d="M7.8575 30.6775C7.2625 31.2025 7.94938 32.2481 8.19438 32.8037C8.43938 33.3594 8.225 34.4356 8.995 34.4662C9.765 34.4969 10.4125 32.5894 10.0406 31.6006C9.67313 30.6162 8.6275 29.9994 7.8575 30.6775Z" fill="#513635"/>
<path d="M5.39438 39.3705C5.39438 39.3705 6.545 38.6311 7.22313 38.2023C7.90125 37.7736 10.5919 35.5117 10.5919 35.5117L11.3925 36.2292C11.3925 36.2292 9.91375 37.7692 8.86813 38.6092C7.8225 39.4492 7.18375 39.6986 6.54938 39.7598C5.92375 39.8211 5.39438 39.3705 5.39438 39.3705Z" fill="#2D3133"/>
<path d="M11.5544 34.5886C12.2719 34.9474 11.8781 35.7349 11.6769 36.0455C11.41 36.4567 10.7756 36.9468 10.2594 36.518C9.7475 36.0849 10.3819 35.083 10.6706 34.8161C10.8806 34.6149 11.305 34.4661 11.5544 34.5886Z" fill="#000502"/>
<defs>
<radialGradient id="paint0_radial_62_312" cx="0" cy="0" r="1" gradientUnits="userSpaceOnUse" gradientTransform="translate(3.05288 38.4059) scale(17.1264 17.1264)">
<stop offset="0.506" stop-color="#FFE5C6"/>
<stop offset="0.568" stop-color="#FFDAB2"/>
<stop offset="0.693" stop-color="#FEC88E"/>
<stop offset="0.811" stop-color="#FEBA74"/>
<stop offset="0.916" stop-color="#FEB264"/>
<stop offset="1" stop-color="#FEAF5F"/>
</radialGradient>
</defs>
</svg>
