<svg width="56" height="56" viewBox="0 0 56 56" fill="none" xmlns="http://www.w3.org/2000/svg">
<path d="M40.4119 5.45117C40.4119 5.45117 45.3425 7.7218 48.3744 11.3662C51.4106 15.0062 51.7606 15.9774 52.2506 17.0712L52.6269 20.0637L46.9613 22.9643L37.6556 20.1993C37.6556 20.1993 32.5981 10.3512 32.5281 10.1499C32.4625 9.94867 34.0812 6.23867 34.0812 6.23867L40.4119 5.45117ZM3.58749 17.2724C3.58749 17.2724 4.94812 14.6693 7.77874 11.563C9.70812 9.44555 14.2931 6.01117 15.33 5.57805L19.5825 8.32992L17.0187 19.123L7.70875 25.3224L3.58749 17.2724Z" fill="#855C52"/>
<path d="M55.6588 28.3108C55.5844 27.9301 55.5057 27.5583 55.4313 27.1908C54.6963 23.6995 53.7294 20.2345 52.2463 17.067C51.4632 18.0995 50.4175 18.9264 49.1707 19.3989L49.0438 19.447C48.2169 19.7708 47.3419 20.0858 46.5194 20.0858C46.1738 20.0858 45.8413 20.0289 45.5438 19.9195C44.2707 19.4558 43.5794 18.4626 43.4919 16.9664L43.4875 16.857C43.1288 15.2908 42.6432 13.9126 42.0875 12.8626C41.93 12.5695 41.7069 12.2326 41.475 11.8783C40.8275 10.8939 40.0225 9.67327 39.8563 8.19452C39.7644 7.40702 39.9744 6.39202 40.4119 5.43827C36.6144 3.80639 32.2919 2.96639 28.0175 2.97077C23.625 2.96202 19.1888 3.85452 15.33 5.56514C15.7238 6.48389 15.9075 7.43764 15.8244 8.19014C15.6538 9.67327 14.8488 10.8939 14.2013 11.8739C13.965 12.2326 13.7463 12.5651 13.5932 12.8583C13.0332 13.8995 12.5475 15.2864 12.1975 16.8089L12.1844 16.9576C12.1013 18.4539 11.41 19.4514 10.1369 19.9151C9.83504 20.0289 9.50254 20.0814 9.15692 20.0814C8.32567 20.0814 7.40692 19.7489 6.61067 19.4339L6.50129 19.3945C5.34192 18.9526 4.35754 18.2001 3.59192 17.2639C2.26629 20.0726 1.35629 23.1089 0.805041 26.1845C0.682541 26.8714 0.546916 27.5714 0.406916 28.2889L0.402541 28.3064L0.385041 28.3939C0.0787913 29.9864 -3.74933 52.8808 27.5669 53.012C27.6982 53.012 27.8338 53.0164 27.9694 53.0164C28.35 53.0164 28.7044 52.9989 29.0763 52.9901C30.8263 52.9464 32.5719 52.8239 34.3132 52.6445C59.7013 49.5908 55.7157 28.5776 55.6588 28.3108Z" fill="#FCD4B5"/>
<path d="M31.71 42.1663C29.9206 47.5869 25.9875 47.6744 23.975 42.7088C23.625 41.8469 23.4281 41.0682 23.3231 40.3463C24.8806 40.8188 26.3987 40.9632 27.6325 40.9632C29.1725 40.9632 30.7081 40.7269 32.1562 40.3201C32.0687 40.8844 31.9375 41.4794 31.71 42.1663Z" fill="#2F2F2F"/>
<path d="M44.1 11.7996C44.8481 13.1996 45.3643 14.8446 45.71 16.3583C45.85 16.9489 45.6181 17.5221 46.3224 17.7802L46.5193 17.8108C47.0443 17.8108 48.0375 17.3952 48.3612 17.2683C49.5775 16.8046 50.4918 15.8639 51.0168 14.7352C51.5418 13.6021 51.6818 12.2852 51.3362 11.0777C51.2968 10.9421 51.2531 10.8108 51.2006 10.6752C50.4612 8.77207 48.5668 6.98707 46.9131 5.89332C46.2481 5.45582 45.2243 4.74707 44.3362 4.74707C44.2268 4.74707 44.1218 4.75582 44.0168 4.7777C43.4 4.91332 42.8137 5.6527 42.455 6.43582C42.2056 6.97395 42.0656 7.53395 42.1137 7.93645C42.2756 9.31457 43.4393 10.5658 44.1 11.7996ZM7.3062 17.2683C7.62558 17.3952 8.62308 17.8108 9.14808 17.8108L9.34495 17.7802C10.0493 17.5221 9.81745 16.9489 9.95308 16.3583C10.2987 14.8446 10.8193 13.1996 11.5675 11.7996C12.2281 10.5658 13.3918 9.3102 13.545 7.9452C13.5887 7.58207 13.4793 7.0877 13.2781 6.60207C12.9325 5.7577 12.2981 4.93082 11.6418 4.78207C11.5412 4.7602 11.4318 4.75144 11.3268 4.75144C10.4387 4.75144 9.41495 5.4602 8.74995 5.8977C7.0962 6.99582 5.19745 8.77645 4.46245 10.6796C4.40995 10.8152 4.3662 10.9464 4.32683 11.0821C3.95058 12.3814 4.1562 13.8033 4.79058 14.9889C5.33308 15.9996 6.1862 16.8439 7.3062 17.2683Z" fill="#FCD4B5"/>
<path d="M20.3175 31.2727C20.4138 31.1546 20.5144 31.0365 20.6194 30.9315C22.2994 29.1158 24.4344 28.5165 26.9107 28.3896C27.09 28.3808 27.2738 28.3765 27.4575 28.3765C30.5025 28.3765 34.23 29.6365 35.77 32.419C37.1832 34.9871 37.0432 39.5283 33.7838 40.7358C33.1538 40.9677 32.4582 41.1515 31.745 41.309C30.4413 41.5933 29.0369 41.764 27.615 41.764C26.3025 41.764 24.9857 41.6283 23.7607 41.3352C22.54 41.0421 21.4069 40.5871 20.4575 39.9571C17.5394 38.019 18.4275 33.5871 20.3175 31.2727Z" fill="#F79329"/>
<path d="M12.11 28.2059C12.1231 26.2415 13.4618 24.6447 15.1068 24.6578C16.7431 24.6622 18.0775 26.2765 18.0687 28.2453C18.06 30.2184 16.7168 31.8022 15.085 31.7978C13.4356 31.7847 12.1012 30.1834 12.11 28.2059ZM40.9718 31.7978C39.34 31.8022 37.9925 30.2184 37.9881 28.2453C37.9793 26.2765 39.3093 24.6622 40.95 24.6578C42.5906 24.6447 43.9293 26.2415 43.9468 28.2059C43.9512 30.1834 42.6168 31.7847 40.9718 31.7978ZM25.8912 35.2409C25.8912 33.4122 25.5893 31.929 24.3993 31.929C23.205 31.929 22.9075 33.4122 22.9075 35.2409C22.9075 37.0697 23.205 38.5572 24.3993 38.5572C25.5893 38.5528 25.8912 37.0697 25.8912 35.2409ZM30.9137 38.5528C32.1125 38.5528 32.41 37.0697 32.41 35.2365C32.41 33.4078 32.1125 31.9247 30.9137 31.9247C29.7237 31.9247 29.4218 33.4078 29.4218 35.2365C29.4218 37.0697 29.7237 38.5528 30.9137 38.5528Z" fill="#2F2F2F"/>
</svg>
