<svg width="56" height="56" viewBox="0 0 56 56" fill="none" xmlns="http://www.w3.org/2000/svg">
<path d="M11.4198 7.39601L11.6165 7.24343L11.8035 7.0937C11.8777 7.03519 11.9616 6.96945 12.0483 6.90459C12.2037 6.79708 12.3794 6.67086 12.5871 6.54584C13.08 6.24064 13.6015 5.98426 14.1441 5.78033C14.8394 5.51754 15.5655 5.34531 16.3047 5.2679C16.5052 5.24286 16.7111 5.2352 16.9194 5.22328C17.128 5.22054 17.3401 5.21442 17.5541 5.22623L17.7152 5.23323L17.7962 5.23717C17.7666 5.2364 18.0925 5.24515 17.9575 5.24187L17.9641 5.24286L17.9772 5.24483L18.0035 5.24887L18.2163 5.28147L18.4323 5.31461L18.5551 5.33386L18.7516 5.36798C19.0123 5.41567 19.282 5.4697 19.5374 5.53325C19.7592 5.60237 19.9822 5.67543 20.2052 5.752C20.3176 5.78711 20.4257 5.8372 20.535 5.88423L20.8625 6.0297C21.0833 6.12212 21.291 6.24692 21.502 6.3657C22.3399 6.85165 23.1075 7.49511 23.737 8.25887C24.3674 9.02133 24.8593 9.90398 25.1712 10.8372C25.4875 11.7692 25.6095 12.7529 25.5616 13.6875L25.5558 13.8626L25.555 13.8844L25.5517 14.0028L25.5505 14.0107L25.5457 14.0422L25.5361 14.1052L25.4976 14.3562L25.4784 14.4812L25.4688 14.5437L25.4637 14.5763L25.4548 14.6245C25.4077 14.8786 25.3543 15.1315 25.2946 15.383C25.264 15.5031 25.2259 15.6011 25.1912 15.7099C25.1172 15.9212 25.0557 16.1331 24.9592 16.3307L24.8244 16.6277C24.7783 16.7254 24.7371 16.8241 24.6812 16.9156C24.5776 17.0987 24.4717 17.2804 24.3634 17.4608C24.2461 17.6284 24.1271 17.7947 24.0064 17.9598C23.9497 18.0427 23.8811 18.1163 23.8169 18.1917L23.6227 18.4135C23.4982 18.5631 23.3564 18.6931 23.2193 18.8221C23.0823 18.951 22.9496 19.0787 22.8028 19.1864C22.6591 19.2972 22.5211 19.4083 22.3792 19.5083L21.948 19.7814C21.8104 19.8737 21.6601 19.94 21.5201 20.0133L21.3105 20.1179L21.2077 20.1684L21.1022 20.2106C20.8213 20.3187 20.5616 20.43 20.3019 20.4926L19.9317 20.5936C19.8121 20.6227 19.6935 20.6388 19.5817 20.6597L19.2598 20.7137C19.1578 20.7313 19.0577 20.7323 18.9646 20.7411C18.7775 20.7533 18.6118 20.7682 18.4676 20.7705L18.1017 20.7599L17.7992 20.7483C17.1185 20.7223 16.5878 20.1492 16.6138 19.4685C16.6362 18.8831 17.0631 18.4087 17.6152 18.3039L17.7992 18.2691L17.9914 18.2326L18.2194 18.192C18.3079 18.171 18.4075 18.1365 18.5186 18.106C18.5736 18.0881 18.6333 18.0782 18.6922 18.0524L18.8764 17.9763C18.9396 17.949 19.0072 17.9276 19.0733 17.8945L19.2752 17.7862C19.4175 17.7223 19.5508 17.6168 19.6961 17.5253L19.7505 17.4898L19.8016 17.4469L19.9052 17.3612C19.9737 17.3019 20.0505 17.2528 20.1134 17.1809C20.1794 17.1138 20.2469 17.047 20.3156 16.9803C20.38 16.9082 20.4393 16.8288 20.5034 16.7542C20.5707 16.6826 20.6233 16.5952 20.6796 16.5112C20.7359 16.4273 20.7971 16.3466 20.8409 16.2516L20.9144 16.1153C20.9386 16.0697 20.9673 16.0269 20.9841 15.9764C21.0231 15.879 21.0637 15.7826 21.1059 15.6872C21.1356 15.5852 21.1654 15.4837 21.1978 15.3839C21.2172 15.3352 21.2224 15.2807 21.2332 15.2288L21.2641 15.0727C21.2929 14.9715 21.2899 14.861 21.3034 14.7563C21.3068 14.7057 21.3187 14.6462 21.3167 14.6037C21.3124 14.5643 21.3093 14.5258 21.3075 14.4882C21.3059 14.451 21.3057 14.4138 21.307 14.3765L21.3075 14.3628L21.3061 14.3327L21.3028 14.2696L21.2964 14.1432L21.2834 13.8896L21.2801 13.8261L21.2784 13.7942L21.278 13.7862C21.2724 13.9995 21.2758 13.8426 21.2743 13.8888L21.2719 13.879L21.2532 13.8004C21.1751 13.3805 21.0239 12.9877 20.8026 12.6492C20.591 12.3196 20.3194 12.0327 20.0019 11.8034C19.7141 11.5952 19.3905 11.4414 19.0472 11.3498C18.9659 11.3317 18.8918 11.3014 18.8093 11.2976C18.7701 11.2926 18.731 11.2869 18.6921 11.2804C18.6536 11.2746 18.617 11.2638 18.577 11.2667C18.5017 11.266 18.4265 11.2624 18.3516 11.2557C18.3077 11.268 18.28 11.2808 18.2483 11.2825L17.9116 11.2992L17.6966 11.3102L17.6701 11.3116L17.6567 11.3123L17.65 11.3126C17.5107 11.3093 17.8322 11.3174 17.7982 11.317L17.7736 11.3236L17.7251 11.3359C17.6603 11.3484 17.5998 11.3728 17.5402 11.388C17.4823 11.4124 17.4247 11.4268 17.3718 11.4532C17.1819 11.5318 17.0039 11.6366 16.843 11.7645C16.7238 11.8579 16.6145 11.9632 16.5168 12.0789C16.4751 12.1237 16.4449 12.1714 16.4149 12.2068C16.4125 12.2177 16.4149 12.2235 16.4139 12.2298L16.4132 12.2377C16.4122 12.2408 16.4172 12.2371 16.3982 12.2586L16.2365 12.4477C14.9771 13.9202 12.7626 14.0929 11.2901 12.8337C9.81759 11.5745 9.64489 9.35984 10.9041 7.88733C11.0577 7.70806 11.2409 7.53667 11.4198 7.39601Z" fill="#E89E34"/>
<path d="M14.7516 18.4652C12.2343 20.9825 13.1836 26.3542 11.3073 28.8336C9.43093 31.3131 4.74028 30.4922 4.74028 30.4922C4.74028 30.4922 1.10498 29.5641 1.10498 25.1616C1.10498 20.759 3.52556 15.4214 9.17543 11.2302C14.8253 7.03891 14.7516 18.4652 14.7516 18.4652Z" fill="#E9EAE5"/>
<path d="M8.06357 16.3081C7.14503 16.2591 6.3606 16.9639 6.31149 17.8825L6.15793 20.7586C6.10893 21.6772 6.81374 22.4616 7.73238 22.5107C8.65102 22.5598 9.43535 21.8549 9.48446 20.9363L9.63802 18.0601C9.68702 17.1415 8.9821 16.3571 8.06357 16.3081Z" fill="#2B3B47"/>
<path d="M42.4913 13.726C34.9859 13.726 36.2367 15.099 29.6695 15.099C24.256 15.099 23.0918 13.2334 18.7739 12.5778C17.8848 10.488 16.1663 8.125 12.9387 8.125C9.655 8.125 8.40407 9.84503 6.63439 13.394L6.63581 13.3942C7.39717 12.6479 8.24132 11.9229 9.17561 11.2298C12.5105 8.75588 13.8507 11.7231 14.3896 14.5701C14.399 14.6197 14.4082 14.6692 14.4171 14.7187L14.4225 14.7489C14.763 16.6605 14.7518 18.4649 14.7518 18.4649C12.2345 20.9821 13.1838 26.3539 11.3074 28.8333C10.0913 30.4405 7.69292 30.6608 6.15576 30.6171L11.335 31.3592C11.7308 31.416 12.0951 31.607 12.3669 31.9004C12.6386 32.1938 12.8013 32.5716 12.8276 32.9706C13.0941 37.0101 14.4894 39.4467 15.7077 40.8298C16.812 42.0832 17.5615 43.6089 17.9212 45.2402C18.7657 49.0692 20.2878 50.7803 22.946 50.7803C24.8224 50.7803 26.0733 46.2778 26.0733 44.5578C26.0733 42.8378 30.9206 42.4096 34.5169 42.4096C38.1133 42.4096 39.4424 43.1899 39.4424 45.0269C39.4424 46.864 39.0515 50.7803 42.8043 50.7803C45.4542 50.7803 47.2464 46.6065 48.071 44.1535C48.4039 43.1631 49.0124 42.2849 49.8329 41.6379C51.5516 40.2828 54.5224 36.8051 55.2308 28.677C56.2023 17.5293 49.9968 13.726 42.4913 13.726Z" fill="#CECECA"/>
<path d="M12.0464 9.37401L12.246 9.2246L12.4478 9.06448C12.5283 9.00148 12.6196 8.9306 12.7136 8.86115C12.8798 8.7474 13.068 8.6144 13.2899 8.48249C13.8167 8.1609 14.3737 7.89151 14.9529 7.67815C15.6939 7.4036 16.4672 7.22557 17.2537 7.14845C17.4668 7.12351 17.6855 7.1164 17.9066 7.10557C18.128 7.10393 18.3531 7.09934 18.58 7.11323L19.0705 7.14013L19.283 7.17655L19.8354 7.27193C20.1158 7.32377 20.4064 7.3836 20.68 7.45371C20.9147 7.5282 21.1504 7.60716 21.3856 7.6904C21.5043 7.72879 21.6185 7.78227 21.734 7.8328L22.0795 7.98932C22.3123 8.0894 22.5313 8.22229 22.7536 8.34971C23.636 8.87012 24.4413 9.55612 25.0986 10.3666C25.757 11.1759 26.2673 12.1095 26.5872 13.0937C26.9117 14.0767 27.0311 15.1113 26.9724 16.0901L26.9644 16.2735L26.9633 16.2963L26.9594 16.4338L26.9581 16.4417L26.9527 16.4732L26.942 16.5361L26.8991 16.7869L26.8518 17.0581C26.8008 17.3278 26.7425 17.5959 26.677 17.8624L26.6648 17.9115L26.6508 17.9537L26.6227 18.0376L26.5659 18.2043C26.4866 18.4247 26.4196 18.6453 26.3174 18.8512L26.1736 19.1603C26.1245 19.2619 26.0802 19.3644 26.0212 19.4597C25.9114 19.6499 25.799 19.8386 25.684 20.0257C25.5603 20.1995 25.4345 20.3719 25.3067 20.5427C25.2467 20.6285 25.1747 20.7047 25.107 20.7827L24.9024 21.0118C24.7709 21.1662 24.6222 21.3004 24.4782 21.4333C24.3343 21.5661 24.1946 21.6972 24.041 21.808C23.8905 21.9218 23.7456 22.0358 23.5972 22.1381C23.444 22.235 23.2937 22.3281 23.1464 22.4174C23.0023 22.5115 22.8457 22.5792 22.6996 22.6538L22.4808 22.76L22.3735 22.8112L22.2636 22.8539C21.9709 22.9635 21.7004 23.0752 21.4307 23.1376L21.046 23.2382C20.9218 23.2669 20.7988 23.2825 20.6829 23.3028L20.3492 23.355C20.2434 23.3719 20.14 23.372 20.0435 23.3801C19.8498 23.3907 19.6784 23.404 19.5294 23.4047L19.1515 23.3898L18.8396 23.374C18.0431 23.3339 17.43 22.6556 17.4701 21.8592C17.5036 21.1961 17.979 20.6602 18.5969 20.5224L18.8396 20.4687L19.0224 20.428L19.2386 20.383C19.3224 20.3604 19.4161 20.3243 19.5208 20.2921C19.5725 20.2733 19.6287 20.2627 19.6839 20.2364L19.8562 20.1584C19.9153 20.1305 19.9785 20.1086 20.0401 20.0751L20.2276 19.9662C20.3598 19.9022 20.4821 19.7971 20.6159 19.7072L20.6658 19.6723L20.7124 19.6301L20.807 19.5459C20.8693 19.4878 20.9398 19.4402 20.9963 19.3701C21.0562 19.3045 21.117 19.2397 21.1788 19.1758C21.2366 19.1061 21.2891 19.0294 21.3464 18.9579C21.4069 18.8893 21.4525 18.8054 21.5019 18.7254C21.5513 18.6453 21.6056 18.5688 21.6423 18.4786L21.7055 18.3498C21.7261 18.3067 21.7514 18.2665 21.7648 18.2188C21.797 18.127 21.8309 18.0366 21.8665 17.9477C21.8896 17.8522 21.9128 17.7577 21.9391 17.6652C21.9553 17.6201 21.9575 17.5696 21.9651 17.5216L21.9872 17.3776C22.0102 17.2847 22.0017 17.1828 22.01 17.0874L22.0144 17.0153L22.0171 16.9795L22.0184 16.9618L22.0155 16.9498C22.0085 16.919 22.0027 16.8879 21.9984 16.8566C21.9943 16.8273 21.9919 16.7978 21.9912 16.7682L21.976 16.538L21.9587 16.2841L21.9543 16.2204L21.9521 16.1886L21.9515 16.1806C21.945 16.4311 21.9489 16.2476 21.9472 16.3023L21.9444 16.2934L21.9237 16.2231C21.8347 15.8475 21.6811 15.5055 21.4678 15.218C21.2575 14.9298 20.9985 14.6934 20.7215 14.5211C20.4447 14.3482 20.1521 14.2409 19.8768 14.1912C19.8067 14.1817 19.7439 14.1595 19.6734 14.1634C19.6403 14.1622 19.6072 14.1601 19.5742 14.1572C19.5418 14.1549 19.5114 14.1477 19.4776 14.1537C19.4119 14.1594 19.3497 14.1618 19.2902 14.1607C19.2646 14.1795 19.2576 14.198 19.2457 14.204C19.2434 14.2055 19.241 14.2068 19.2384 14.2077L19.1444 14.2144L18.926 14.2294L18.7109 14.2441L18.6842 14.246L18.6708 14.2469L18.6642 14.2473C18.5012 14.2434 18.8783 14.2531 18.839 14.2525L18.8192 14.2599L18.7802 14.2739C18.7283 14.2884 18.6808 14.3144 18.634 14.3308C18.5889 14.3563 18.5441 14.3712 18.5039 14.3978C18.3605 14.4759 18.2295 14.575 18.1153 14.6918C18.0322 14.7755 17.9584 14.8679 17.895 14.9674C17.8677 15.0054 17.85 15.0463 17.8306 15.0754C17.8354 15.0816 17.8453 15.0824 17.8506 15.0841L17.8591 15.0854C17.8608 15.0863 17.8695 15.0797 17.8497 15.1025L17.6908 15.2948C16.2424 17.0491 13.6462 17.2969 11.8919 15.8486C10.1376 14.4002 9.88978 11.8039 11.3381 10.0496C11.5467 9.79674 11.7965 9.56345 12.0464 9.37401Z" fill="#FFB941"/>
</svg>
