<svg width="20" height="20" viewBox="0 0 25 25" fill="none" xmlns="http://www.w3.org/2000/svg">
<g clip-path="url(#clip0_73_480)">
<path d="M7.8125 0V1.38889H0V4.16667H1.5625V22.2222C1.5625 22.9589 1.89174 23.6655 2.47779 24.1864C3.06384 24.7073 3.8587 25 4.6875 25H20.3125C21.1413 25 21.9362 24.7073 22.5222 24.1864C23.1083 23.6655 23.4375 22.9589 23.4375 22.2222V4.16667H25V1.38889H17.1875V0H7.8125ZM4.6875 4.16667H20.3125V22.2222H4.6875V4.16667ZM7.8125 6.94444V19.4444H10.9375V6.94444H7.8125ZM14.0625 6.94444V19.4444H17.1875V6.94444H14.0625Z" fill="#757575"/>
</g>
<defs>
<clipPath id="clip0_73_480">
<rect width="25" height="25" fill="white"/>
</clipPath>
</defs>
</svg>
