<svg width="25" height="25" viewBox="0 0 25 25" fill="none" xmlns="http://www.w3.org/2000/svg">
<path d="M5.20833 21.875C4.63542 21.875 4.14514 21.6712 3.7375 21.2635C3.32986 20.8559 3.12569 20.3653 3.125 19.7917V5.20833C3.125 4.63542 3.32917 4.14514 3.7375 3.7375C4.14583 3.32986 4.63611 3.12569 5.20833 3.125H14.5052L12.4219 5.20833H5.20833V19.7917H19.7917V12.5521L21.875 10.4687V19.7917C21.875 20.3646 21.6712 20.8552 21.2635 21.2635C20.8559 21.6719 20.3653 21.8757 19.7917 21.875H5.20833ZM9.375 15.625V11.1979L18.9323 1.64062C19.1406 1.43229 19.375 1.27604 19.6354 1.17187C19.8958 1.06771 20.1563 1.01563 20.4167 1.01562C20.6944 1.01562 20.9594 1.06771 21.2115 1.17187C21.4635 1.27604 21.6934 1.43229 21.901 1.64062L23.3594 3.125C23.5503 3.33333 23.6979 3.56354 23.8021 3.81563C23.9063 4.06771 23.9583 4.32361 23.9583 4.58333C23.9583 4.84306 23.9108 5.09931 23.8156 5.35208C23.7205 5.60486 23.5684 5.83472 23.3594 6.04167L13.8021 15.625H9.375ZM11.4583 13.5417H12.9167L18.9583 7.5L18.2292 6.77083L17.474 6.04167L11.4583 12.0573V13.5417Z" fill="#757575"/>
</svg>
