<svg viewBox="0 0 592 209" fill="none" xmlns="http://www.w3.org/2000/svg">
<path d="M333.911 2.30401C336.3 2.64534 337.922 3.37068 338.775 4.48001C339.714 5.58935 340.183 7.04001 340.183 8.83201C340.183 14.72 337.026 17.4507 330.711 17.024L326.231 16.64C321.196 16.2133 316.162 15.872 311.127 15.616C306.178 15.36 300.972 15.232 295.511 15.232H289.751C288.727 27.8613 287.66 39.3813 286.551 49.792L308.567 49.408C311.724 49.408 313.815 49.9627 314.839 51.072C315.948 52.1813 316.503 53.6747 316.503 55.552C316.503 58.4533 315.65 60.7573 313.943 62.464C312.236 64.0853 309.804 64.896 306.647 64.896H284.759L283.991 70.4C282.199 84.48 278.359 94.5067 272.471 100.48C266.668 106.453 258.647 109.44 248.407 109.44C242.604 109.44 237.271 108.203 232.407 105.728C227.543 103.168 223.959 100.096 221.655 96.512C220.716 95.0613 220.247 93.312 220.247 91.264C220.247 89.216 220.716 87.424 221.655 85.888C222.679 84.352 223.916 83.584 225.367 83.584C226.391 83.584 227.372 83.9253 228.311 84.608C229.335 85.2907 230.615 86.6133 232.151 88.576C236.247 93.952 241.324 96.64 247.383 96.64C252.247 96.64 256.3 94.6773 259.543 90.752C262.871 86.7413 265.004 80.4693 265.943 71.936L266.711 64.896H260.567C258.604 64.896 256.898 64.3413 255.447 63.232C254.082 62.1227 253.399 60.544 253.399 58.496C253.399 55.8507 254.082 53.8453 255.447 52.48C256.812 51.0293 258.818 50.304 261.463 50.304C263.852 50.304 266.199 50.2613 268.503 50.176C269.527 40.7893 270.636 29.3973 271.831 16C262.615 16.8533 256.13 18.3467 252.375 20.48C248.62 22.6133 246.743 25.7707 246.743 29.952C246.743 32.8533 247.596 35.6267 249.303 38.272C249.815 39.04 250.071 39.808 250.071 40.576C250.071 42.112 249.218 43.4773 247.511 44.672C245.804 45.7813 243.884 46.336 241.751 46.336C239.447 46.336 237.484 45.6533 235.863 44.288C234.839 43.4347 233.858 41.6853 232.919 39.04C231.98 36.3947 231.511 33.4507 231.511 30.208C231.511 19.6267 236.93 11.9467 247.767 7.16801C258.69 2.38934 274.604 7.62939e-06 295.511 7.62939e-06C310.018 7.62939e-06 322.818 0.768008 333.911 2.30401ZM373.482 79.872C374.591 79.872 375.445 80.384 376.042 81.408C376.725 82.432 377.066 83.84 377.066 85.632C377.066 89.0453 376.255 91.6907 374.634 93.568C371.477 97.408 366.997 100.949 361.194 104.192C355.477 107.435 349.333 109.056 342.762 109.056C333.802 109.056 326.847 106.624 321.898 101.76C316.949 96.896 314.474 90.24 314.474 81.792C314.474 75.904 315.711 70.4427 318.186 65.408C320.661 60.288 324.074 56.2347 328.426 53.248C332.863 50.2613 337.855 48.768 343.402 48.768C348.351 48.768 352.319 50.2613 355.306 53.248C358.293 56.1493 359.786 60.1173 359.786 65.152C359.786 71.04 357.653 76.1173 353.386 80.384C349.205 84.5653 342.079 87.8933 332.01 90.368C334.143 94.2933 338.197 96.256 344.17 96.256C348.01 96.256 352.362 94.9333 357.226 92.288C362.175 89.5573 366.442 86.016 370.026 81.664C371.05 80.4693 372.202 79.872 373.482 79.872ZM341.226 61.312C338.069 61.312 335.381 63.1467 333.162 66.816C331.029 70.4853 329.962 74.9227 329.962 80.128V80.384C334.997 79.1893 338.965 77.3973 341.866 75.008C344.767 72.6187 346.218 69.8453 346.218 66.688C346.218 65.0667 345.749 63.7867 344.81 62.848C343.957 61.824 342.762 61.312 341.226 61.312ZM375.732 109.056C372.489 109.056 370.185 107.349 368.82 103.936C367.54 100.523 366.9 95.0613 366.9 87.552C366.9 76.4587 368.479 65.92 371.636 55.936C372.404 53.4613 373.641 51.6693 375.348 50.56C377.14 49.3653 379.615 48.768 382.772 48.768C384.479 48.768 385.673 48.9813 386.356 49.408C387.039 49.8347 387.38 50.6453 387.38 51.84C387.38 53.2053 386.74 56.2773 385.46 61.056C384.607 64.4693 383.924 67.456 383.412 70.016C382.9 72.576 382.473 75.7333 382.132 79.488C384.948 72.1493 388.105 66.176 391.604 61.568C395.103 56.96 398.516 53.6747 401.844 51.712C405.257 49.7493 408.372 48.768 411.188 48.768C416.735 48.768 419.508 51.5413 419.508 57.088C419.508 58.1973 419.124 60.8853 418.356 65.152C417.673 68.5653 417.332 70.6987 417.332 71.552C417.332 74.5387 418.399 76.032 420.532 76.032C422.921 76.032 425.993 74.1547 429.748 70.4C430.857 69.2907 432.009 68.736 433.204 68.736C434.313 68.736 435.167 69.248 435.764 70.272C436.447 71.2107 436.788 72.4907 436.788 74.112C436.788 77.2693 435.935 79.744 434.228 81.536C431.839 84.0107 429.023 86.144 425.78 87.936C422.623 89.6427 419.252 90.496 415.668 90.496C411.145 90.496 407.689 89.344 405.3 87.04C402.996 84.736 401.844 81.6213 401.844 77.696C401.844 76.416 401.972 75.136 402.228 73.856C402.399 72.1493 402.484 70.9973 402.484 70.4C402.484 69.0347 402.015 68.352 401.076 68.352C399.796 68.352 398.089 69.8027 395.956 72.704C393.908 75.52 391.86 79.2747 389.812 83.968C387.764 88.6613 386.1 93.6107 384.82 98.816C383.881 102.827 382.772 105.557 381.492 107.008C380.297 108.373 378.377 109.056 375.732 109.056ZM433.982 109.056C430.739 109.056 428.435 107.349 427.07 103.936C425.79 100.523 425.15 95.0613 425.15 87.552C425.15 76.4587 426.729 65.92 429.886 55.936C430.654 53.4613 431.891 51.6693 433.598 50.56C435.39 49.3653 437.865 48.768 441.022 48.768C442.729 48.768 443.923 48.9813 444.606 49.408C445.289 49.8347 445.63 50.6453 445.63 51.84C445.63 53.2053 444.99 56.2773 443.71 61.056C442.857 64.4693 442.174 67.456 441.662 70.016C441.15 72.4907 440.723 75.6053 440.382 79.36C442.686 72.704 445.417 67.072 448.574 62.464C451.817 57.856 455.102 54.4427 458.43 52.224C461.843 49.92 465.043 48.768 468.03 48.768C471.017 48.768 473.107 49.4507 474.302 50.816C475.582 52.1813 476.222 54.272 476.222 57.088C476.222 59.8187 475.411 64.768 473.79 71.936C473.107 75.008 472.638 77.312 472.382 78.848C476.649 68.352 481.385 60.7147 486.59 55.936C491.795 51.1573 496.659 48.768 501.182 48.768C506.729 48.768 509.502 51.5413 509.502 57.088C509.502 60.416 508.563 66.432 506.686 75.136C505.065 82.56 504.254 87.4667 504.254 89.856C504.254 93.2693 505.491 94.976 507.966 94.976C509.673 94.976 511.678 93.952 513.982 91.904C516.371 89.7707 519.529 86.3573 523.454 81.664C524.478 80.4693 525.63 79.872 526.91 79.872C528.019 79.872 528.873 80.384 529.47 81.408C530.153 82.432 530.494 83.84 530.494 85.632C530.494 89.0453 529.683 91.6907 528.062 93.568C524.393 98.0907 520.425 101.803 516.158 104.704C511.977 107.605 507.198 109.056 501.822 109.056C497.47 109.056 494.185 107.819 491.966 105.344C489.747 102.784 488.638 99.1147 488.638 94.336C488.638 91.9467 489.235 87.68 490.43 81.536C491.539 76.16 492.094 72.448 492.094 70.4C492.094 69.0347 491.625 68.352 490.686 68.352C489.577 68.352 487.998 69.8027 485.95 72.704C483.902 75.52 481.854 79.2747 479.806 83.968C477.758 88.6613 476.094 93.6107 474.814 98.816C473.875 102.912 472.766 105.643 471.486 107.008C470.291 108.373 468.329 109.056 465.598 109.056C462.782 109.056 460.649 107.733 459.198 105.088C457.833 102.357 457.15 99.072 457.15 95.232C457.15 91.9893 457.577 87.296 458.43 81.152C459.113 75.6907 459.454 72.1067 459.454 70.4C459.454 69.0347 458.985 68.352 458.046 68.352C456.766 68.352 455.145 69.888 453.182 72.96C451.219 76.032 449.299 79.9573 447.422 84.736C445.63 89.5147 444.179 94.208 443.07 98.816C442.131 102.827 441.022 105.557 439.742 107.008C438.547 108.373 436.627 109.056 433.982 109.056ZM534.864 109.056C530 109.056 526.032 107.136 522.96 103.296C519.973 99.456 518.48 94.4213 518.48 88.192C518.48 81.3653 520.059 74.9227 523.216 68.864C526.373 62.72 530.555 57.8133 535.76 54.144C541.051 50.3893 546.64 48.512 552.528 48.512C554.405 48.512 555.643 48.896 556.24 49.664C556.923 50.3467 557.477 51.6267 557.904 53.504C559.525 53.1627 561.317 52.992 563.28 52.992C565.328 52.992 566.907 53.504 568.016 54.528C569.125 55.552 569.68 57.0027 569.68 58.88C569.68 60.8427 569.253 64.256 568.4 69.12C567.461 74.3253 566.736 79.3173 566.224 84.096C565.712 88.7893 565.456 94.08 565.456 99.968C565.456 103.211 564.773 105.557 563.408 107.008C562.128 108.373 559.995 109.056 557.008 109.056C554.107 109.056 551.931 108.373 550.48 107.008C549.115 105.557 548.432 103.253 548.432 100.096L548.56 98.048C545.915 105.387 541.349 109.056 534.864 109.056ZM539.856 96.128C542.245 96.128 544.421 94.464 546.384 91.136C548.347 87.808 550.096 81.8773 551.632 73.344L554.064 60.416C550.565 60.5013 547.323 61.8667 544.336 64.512C541.349 67.072 538.96 70.4853 537.168 74.752C535.376 79.0187 534.48 83.5413 534.48 88.32C534.48 90.88 534.949 92.8427 535.888 94.208C536.912 95.488 538.235 96.128 539.856 96.128ZM309.982 208.056C306.739 208.056 304.435 206.349 303.07 202.936C301.79 199.523 301.15 194.061 301.15 186.552C301.15 175.459 302.729 164.92 305.886 154.936C306.654 152.461 307.891 150.669 309.598 149.56C311.39 148.365 313.865 147.768 317.022 147.768C318.729 147.768 319.923 147.981 320.606 148.408C321.289 148.835 321.63 149.645 321.63 150.84C321.63 152.205 320.99 155.277 319.71 160.056C318.857 163.469 318.174 166.456 317.662 169.016C317.15 171.491 316.723 174.605 316.382 178.36C318.686 171.704 321.417 166.072 324.574 161.464C327.817 156.856 331.102 153.443 334.43 151.224C337.843 148.92 341.043 147.768 344.03 147.768C347.017 147.768 349.107 148.451 350.302 149.816C351.582 151.181 352.222 153.272 352.222 156.088C352.222 158.819 351.411 163.768 349.79 170.936C349.107 174.008 348.638 176.312 348.382 177.848C352.649 167.352 357.385 159.715 362.59 154.936C367.795 150.157 372.659 147.768 377.182 147.768C382.729 147.768 385.502 150.541 385.502 156.088C385.502 159.416 384.563 165.432 382.686 174.136C381.065 181.56 380.254 186.467 380.254 188.856C380.254 192.269 381.491 193.976 383.966 193.976C385.673 193.976 387.678 192.952 389.982 190.904C392.371 188.771 395.529 185.357 399.454 180.664C400.478 179.469 401.63 178.872 402.91 178.872C404.019 178.872 404.873 179.384 405.47 180.408C406.153 181.432 406.494 182.84 406.494 184.632C406.494 188.045 405.683 190.691 404.062 192.568C400.393 197.091 396.425 200.803 392.158 203.704C387.977 206.605 383.198 208.056 377.822 208.056C373.47 208.056 370.185 206.819 367.966 204.344C365.747 201.784 364.638 198.115 364.638 193.336C364.638 190.947 365.235 186.68 366.43 180.536C367.539 175.16 368.094 171.448 368.094 169.4C368.094 168.035 367.625 167.352 366.686 167.352C365.577 167.352 363.998 168.803 361.95 171.704C359.902 174.52 357.854 178.275 355.806 182.968C353.758 187.661 352.094 192.611 350.814 197.816C349.875 201.912 348.766 204.643 347.486 206.008C346.291 207.373 344.329 208.056 341.598 208.056C338.782 208.056 336.649 206.733 335.198 204.088C333.833 201.357 333.15 198.072 333.15 194.232C333.15 190.989 333.577 186.296 334.43 180.152C335.113 174.691 335.454 171.107 335.454 169.4C335.454 168.035 334.985 167.352 334.046 167.352C332.766 167.352 331.145 168.888 329.182 171.96C327.219 175.032 325.299 178.957 323.422 183.736C321.63 188.515 320.179 193.208 319.07 197.816C318.131 201.827 317.022 204.557 315.742 206.008C314.547 207.373 312.627 208.056 309.982 208.056ZM453.232 178.872C454.341 178.872 455.195 179.384 455.792 180.408C456.475 181.432 456.816 182.84 456.816 184.632C456.816 188.045 456.005 190.691 454.384 192.568C451.227 196.408 446.747 199.949 440.944 203.192C435.227 206.435 429.083 208.056 422.512 208.056C413.552 208.056 406.597 205.624 401.648 200.76C396.699 195.896 394.224 189.24 394.224 180.792C394.224 174.904 395.461 169.443 397.936 164.408C400.411 159.288 403.824 155.235 408.176 152.248C412.613 149.261 417.605 147.768 423.152 147.768C428.101 147.768 432.069 149.261 435.056 152.248C438.043 155.149 439.536 159.117 439.536 164.152C439.536 170.04 437.403 175.117 433.136 179.384C428.955 183.565 421.829 186.893 411.76 189.368C413.893 193.293 417.947 195.256 423.92 195.256C427.76 195.256 432.112 193.933 436.976 191.288C441.925 188.557 446.192 185.016 449.776 180.664C450.8 179.469 451.952 178.872 453.232 178.872ZM420.976 160.312C417.819 160.312 415.131 162.147 412.912 165.816C410.779 169.485 409.712 173.923 409.712 179.128V179.384C414.747 178.189 418.715 176.397 421.616 174.008C424.517 171.619 425.968 168.845 425.968 165.688C425.968 164.067 425.499 162.787 424.56 161.848C423.707 160.824 422.512 160.312 420.976 160.312ZM460.489 208.056C455.625 208.056 451.657 206.136 448.585 202.296C445.598 198.456 444.105 193.421 444.105 187.192C444.105 180.365 445.684 173.923 448.841 167.864C451.998 161.72 456.18 156.813 461.385 153.144C466.676 149.389 472.265 147.512 478.153 147.512C480.03 147.512 481.268 147.896 481.865 148.664C482.548 149.347 483.102 150.627 483.529 152.504C485.15 152.163 486.942 151.992 488.905 151.992C490.953 151.992 492.532 152.504 493.641 153.528C494.75 154.552 495.305 156.003 495.305 157.88C495.305 159.843 494.878 163.256 494.025 168.12C493.086 173.325 492.361 178.317 491.849 183.096C491.337 187.789 491.081 193.08 491.081 198.968C491.081 202.211 490.398 204.557 489.033 206.008C487.753 207.373 485.62 208.056 482.633 208.056C479.732 208.056 477.556 207.373 476.105 206.008C474.74 204.557 474.057 202.253 474.057 199.096L474.185 197.048C471.54 204.387 466.974 208.056 460.489 208.056ZM465.481 195.128C467.87 195.128 470.046 193.464 472.009 190.136C473.972 186.808 475.721 180.877 477.257 172.344L479.689 159.416C476.19 159.501 472.948 160.867 469.961 163.512C466.974 166.072 464.585 169.485 462.793 173.752C461.001 178.019 460.105 182.541 460.105 187.32C460.105 189.88 460.574 191.843 461.513 193.208C462.537 194.488 463.86 195.128 465.481 195.128Z" fill="white"/>
<circle cx="100" cy="102.416" r="97.5" fill="#FFFBF8" stroke="#398333" stroke-width="5"/>
<path d="M111.691 58.975C111.691 58.975 117.958 43.3356 125.183 44.7088C133.245 46.2455 128.751 65.1109 128.751 65.1109L111.691 58.975ZM90.3015 56.3593C90.3015 56.3593 82.7019 41.4719 76.3468 43.6298C69.9918 45.7877 74.6397 65.416 74.6397 65.416L90.3015 56.3593Z" fill="#FFB903"/>
<path d="M71.8287 112.396C71.8287 112.396 83.0478 109.412 86.0308 107.81C88.5751 106.45 102.865 100.186 103.94 80.8884C105.014 61.5911 91.3936 55.9741 89.5402 55.5024C87.6868 55.0416 80.997 56.8408 77.0818 58.7936C75.4149 59.6273 71.8287 62.0409 71.8287 62.0409C71.8287 62.0409 64.7222 54.6247 53.6127 53.5496C42.5033 52.4635 34.1575 58.3328 34.004 59.1117C33.8504 59.8797 38.1714 75.052 46.0785 80.3289C48.3815 81.8648 51.3426 82.5559 53.3714 82.8302C58.6794 83.5542 60.7083 82.896 60.7083 82.896C60.7083 82.896 59.9406 91.0801 59.7871 95.2489C59.6335 99.4177 59.5458 105.309 59.0633 109.566C58.7562 112.297 55.0494 119.549 54.9507 124.902C54.8849 128.457 71.8287 112.396 71.8287 112.396Z" fill="#BC8954"/>
<path d="M83.2427 57.2562C83.2427 57.2562 85.4013 54.6439 103.448 55.256C121.495 55.8681 131.52 62.1856 131.52 62.1856C131.52 62.1856 137.744 57.431 143.815 55.3653C152.832 52.3049 164.962 57.4529 165.915 59.4203C166.649 60.9177 162.519 74.2523 157.128 78.8101C151.112 83.8925 144.636 83.5755 144.636 83.5755C144.636 83.5755 143.212 92.9207 142.938 99.883C142.785 103.883 143.332 108.059 144.023 110.19C145.414 114.496 146.203 117.458 146.893 122.738C147.474 127.142 147.573 131.416 147.573 131.416L76 113.414L83.2427 57.2562Z" fill="#DFDFDF"/>
<path d="M102.215 110.295C115.522 110.615 118.619 108.274 127.691 108.892C136.763 109.511 148.319 119.15 147.225 132.984C146.131 146.819 134.728 156.768 122.537 159.561C110.346 162.354 83.1513 162.675 70.3366 155.674C57.4672 148.652 54.7094 139.201 54.5562 130.335C54.403 121.468 60.9581 108.738 75.1736 107.192C89.3891 105.646 89.0826 109.985 102.215 110.295ZM137.431 71.9038C135.154 67.8847 137.431 61.536 144.62 59.8798C151.81 58.2236 159 61.536 159 61.536C159 61.536 156.8 70.0378 151.81 73.3502C147.597 76.1547 140.714 77.7005 137.431 71.9038ZM57.7298 60.2993C51.3279 58.2898 43 60.9066 43 60.9066C43 60.9066 43.2626 64.6386 45.8891 68.2491C47.4649 70.4132 49.8177 73.0079 53.5385 74.2445C62.2713 77.1484 65.5324 71.9038 66.2438 69.5188C66.977 67.1339 65.6419 62.7836 57.7298 60.2993Z" fill="#FFD3B0"/>
<path d="M89.9143 92.9822C90.5059 88.8755 88.3757 85.1705 85.1564 84.7067C81.937 84.2429 78.8476 87.196 78.256 91.3026C77.6644 95.4092 79.7946 99.1143 83.0139 99.5781C86.2333 100.042 89.3227 97.0888 89.9143 92.9822Z" fill="#0A0A0A"/>
<path d="M123.042 100.063C126.256 99.5631 128.343 95.8293 127.704 91.7237C127.065 87.6181 123.941 84.6953 120.728 85.1956C117.514 85.6959 115.426 89.4298 116.066 93.5354C116.705 97.641 119.828 100.564 123.042 100.063Z" fill="#0A0A0A"/>
<path d="M110.379 137.591C107.052 135.021 108.915 128.242 114.437 124.459C120.27 120.457 126.336 121.922 127.445 124.361C128.898 127.542 127.235 129.489 125.471 130.823C123.797 132.08 121.513 131.85 120.06 132.67C118.607 133.491 117.975 135.645 116.001 137.394C114.171 139.001 111.488 138.433 110.379 137.591ZM74.1603 124.864C75.2027 120.249 82.666 120.424 88 124.448C93.6335 128.701 94.7646 134.715 92.3693 136.76C89.6413 139.1 87.002 137.93 85.3607 136.53C83.7638 135.174 83.1983 134.081 81.9562 132.955C80.7253 131.839 78.5185 131.511 76.2341 130.188C74.1271 128.975 73.7168 126.832 74.1603 124.864Z" fill="#2E2F31"/>
</svg>