<svg viewBox="0 0 498 176" fill="none" xmlns="http://www.w3.org/2000/svg">
<path d="M79.2015 37.2447C80.7722 37.4691 81.838 37.9459 82.399 38.6752C83.016 39.4044 83.3245 40.358 83.3245 41.5361C83.3245 45.4067 81.249 47.2017 77.0979 46.9213L74.1528 46.6688C70.8432 46.3884 67.5335 46.164 64.2239 45.9957C60.9703 45.8274 57.5485 45.7432 53.9583 45.7432H50.1718C49.4987 54.0454 48.7975 61.6184 48.0682 68.4621L62.541 68.2097C64.6165 68.2097 65.9909 68.5743 66.664 69.3035C67.3933 70.0328 67.7579 71.0145 67.7579 72.2486C67.7579 74.1558 67.197 75.6704 66.075 76.7923C64.9531 77.8582 63.3544 78.3911 61.2788 78.3911H46.8902L46.3854 82.0093C45.2074 91.2651 42.683 97.8564 38.8124 101.783C34.9979 105.71 29.7249 107.673 22.9934 107.673C19.1788 107.673 15.6729 106.86 12.4754 105.233C9.27791 103.55 6.92189 101.531 5.4073 99.1746C4.79024 98.221 4.48171 97.071 4.48171 95.7247C4.48171 94.3784 4.79024 93.2004 5.4073 92.1907C6.08045 91.1809 6.89384 90.6761 7.84747 90.6761C8.52062 90.6761 9.16572 90.9005 9.78278 91.3492C10.4559 91.798 11.2974 92.6675 12.3071 93.9577C14.9997 97.4917 18.3374 99.2588 22.3202 99.2588C25.5177 99.2588 28.1822 97.9686 30.3139 95.3881C32.5016 92.7516 33.904 88.6286 34.5211 83.019L35.0259 78.3911H30.987C29.6968 78.3911 28.5749 78.0265 27.6213 77.2972C26.7237 76.568 26.275 75.5302 26.275 74.1839C26.275 72.4449 26.7237 71.1267 27.6213 70.2291C28.5188 69.2755 29.8371 68.7987 31.576 68.7987C33.1467 68.7987 34.6894 68.7706 36.204 68.7145C36.8771 62.544 37.6064 55.0552 38.3917 46.2481C32.3333 46.8091 28.07 47.7908 25.6018 49.1931C23.1336 50.5955 21.8995 52.6711 21.8995 55.4198C21.8995 57.3271 22.4605 59.1502 23.5824 60.8891C23.919 61.394 24.0872 61.8989 24.0872 62.4037C24.0872 63.4135 23.5263 64.311 22.4044 65.0963C21.2824 65.8256 20.0203 66.1902 18.6179 66.1902C17.1033 66.1902 15.8131 65.7414 14.7473 64.8439C14.0741 64.283 13.429 63.133 12.812 61.394C12.1949 59.655 11.8864 57.7197 11.8864 55.5881C11.8864 48.6322 15.4485 43.5836 22.5726 40.4422C29.7529 37.3008 40.2148 35.7301 53.9583 35.7301C63.4946 35.7301 71.909 36.235 79.2015 37.2447ZM105.214 88.2359C105.944 88.2359 106.505 88.5725 106.897 89.2456C107.346 89.9188 107.57 90.8444 107.57 92.0224C107.57 94.2662 107.038 96.0052 105.972 97.2393C103.896 99.7636 100.951 102.092 97.1366 104.223C93.3782 106.355 89.3393 107.421 85.0199 107.421C79.1298 107.421 74.558 105.822 71.3044 102.625C68.0509 99.4271 66.4241 95.0516 66.4241 89.4981C66.4241 85.6275 67.2375 82.0373 68.8643 78.7277C70.4911 75.3619 72.7349 72.6973 75.5958 70.734C78.5128 68.7706 81.7944 67.7889 85.4406 67.7889C88.6942 67.7889 91.3026 68.7706 93.266 70.734C95.2294 72.6412 96.211 75.2497 96.211 78.5594C96.211 82.43 94.8086 85.7677 92.0038 88.5725C89.2551 91.3212 84.5711 93.5089 77.9518 95.1357C79.3542 97.7161 82.0188 99.0063 85.9455 99.0063C88.4698 99.0063 91.3307 98.1368 94.5282 96.3979C97.7817 94.6028 100.587 92.2748 102.943 89.4139C103.616 88.6286 104.373 88.2359 105.214 88.2359ZM84.0102 76.035C81.9346 76.035 80.1676 77.2411 78.7091 79.6532C77.3067 82.0654 76.6055 84.9823 76.6055 88.4042V88.5725C79.9152 87.7871 82.5236 86.6091 84.4309 85.0384C86.3382 83.4678 87.2918 81.6446 87.2918 79.5691C87.2918 78.5033 86.9833 77.6618 86.3662 77.0448C85.8052 76.3716 85.0199 76.035 84.0102 76.035ZM106.694 107.421C104.562 107.421 103.047 106.299 102.15 104.055C101.308 101.811 100.888 98.221 100.888 93.2845C100.888 85.9921 101.925 79.0642 104.001 72.501C104.506 70.8742 105.319 69.6962 106.441 68.967C107.619 68.1816 109.246 67.7889 111.321 67.7889C112.443 67.7889 113.229 67.9292 113.677 68.2097C114.126 68.4901 114.351 69.0231 114.351 69.8084C114.351 70.7059 113.93 72.7254 113.088 75.8668C112.528 78.1106 112.079 80.074 111.742 81.7568C111.406 83.4397 111.125 85.5153 110.901 87.9835C112.752 83.1592 114.827 79.2325 117.127 76.2033C119.427 73.1742 121.671 71.0145 123.859 69.7243C126.103 68.4341 128.15 67.7889 130.001 67.7889C133.648 67.7889 135.471 69.6121 135.471 73.2583C135.471 73.9875 135.218 75.7546 134.713 78.5594C134.265 80.8032 134.04 82.2056 134.04 82.7666C134.04 84.7299 134.741 85.7116 136.144 85.7116C137.715 85.7116 139.734 84.4775 142.202 82.0093C142.931 81.28 143.689 80.9154 144.474 80.9154C145.203 80.9154 145.764 81.252 146.157 81.9251C146.606 82.5422 146.83 83.3836 146.83 84.4494C146.83 86.525 146.269 88.1518 145.147 89.3298C143.577 90.9566 141.725 92.359 139.594 93.537C137.518 94.6589 135.302 95.2199 132.946 95.2199C129.973 95.2199 127.701 94.4626 126.131 92.948C124.616 91.4334 123.859 89.3859 123.859 86.8055C123.859 85.964 123.943 85.1226 124.111 84.2812C124.224 83.1592 124.28 82.4019 124.28 82.0093C124.28 81.1117 123.971 80.663 123.354 80.663C122.513 80.663 121.391 81.6166 119.988 83.5239C118.642 85.375 117.296 87.8432 115.949 90.9285C114.603 94.0138 113.509 97.2674 112.668 100.689C112.051 103.326 111.321 105.121 110.48 106.074C109.695 106.972 108.433 107.421 106.694 107.421ZM144.986 107.421C142.854 107.421 141.339 106.299 140.442 104.055C139.6 101.811 139.18 98.221 139.18 93.2845C139.18 85.9921 140.217 79.0642 142.293 72.501C142.798 70.8742 143.611 69.6962 144.733 68.967C145.911 68.1816 147.538 67.7889 149.613 67.7889C150.735 67.7889 151.521 67.9292 151.97 68.2097C152.418 68.4901 152.643 69.0231 152.643 69.8084C152.643 70.7059 152.222 72.7254 151.381 75.8668C150.82 78.1106 150.371 80.074 150.034 81.7568C149.698 83.3836 149.417 85.4311 149.193 87.8993C150.707 83.5239 152.502 79.8215 154.578 76.7923C156.71 73.7632 158.869 71.5193 161.057 70.0608C163.301 68.5462 165.404 67.7889 167.368 67.7889C169.331 67.7889 170.706 68.2377 171.491 69.1353C172.332 70.0328 172.753 71.4071 172.753 73.2583C172.753 75.0534 172.22 78.3069 171.154 83.019C170.706 85.0384 170.397 86.553 170.229 87.5628C173.034 80.663 176.147 75.6424 179.569 72.501C182.991 69.3596 186.188 67.7889 189.161 67.7889C192.807 67.7889 194.63 69.6121 194.63 73.2583C194.63 75.446 194.013 79.4008 192.779 85.1226C191.713 90.0029 191.181 93.2285 191.181 94.7991C191.181 97.043 191.994 98.1649 193.621 98.1649C194.743 98.1649 196.061 97.4917 197.575 96.1454C199.146 94.743 201.222 92.4992 203.802 89.4139C204.475 88.6286 205.233 88.2359 206.074 88.2359C206.803 88.2359 207.364 88.5725 207.757 89.2456C208.206 89.9188 208.43 90.8444 208.43 92.0224C208.43 94.2662 207.897 96.0052 206.831 97.2393C204.419 100.212 201.811 102.653 199.006 104.56C196.257 106.467 193.116 107.421 189.582 107.421C186.721 107.421 184.561 106.607 183.103 104.981C181.644 103.298 180.915 100.886 180.915 97.7442C180.915 96.1735 181.308 93.3687 182.093 89.3298C182.822 85.7957 183.187 83.3556 183.187 82.0093C183.187 81.1117 182.878 80.663 182.261 80.663C181.532 80.663 180.494 81.6166 179.148 83.5239C177.802 85.375 176.455 87.8432 175.109 90.9285C173.763 94.0138 172.669 97.2674 171.827 100.689C171.21 103.382 170.481 105.177 169.64 106.074C168.854 106.972 167.564 107.421 165.769 107.421C163.918 107.421 162.516 106.551 161.562 104.812C160.664 103.017 160.216 100.857 160.216 98.3332C160.216 96.2015 160.496 93.1163 161.057 89.0774C161.506 85.4872 161.73 83.1312 161.73 82.0093C161.73 81.1117 161.422 80.663 160.805 80.663C159.963 80.663 158.897 81.6727 157.607 83.6921C156.317 85.7116 155.055 88.292 153.821 91.4334C152.643 94.5748 151.689 97.66 150.96 100.689C150.343 103.326 149.613 105.121 148.772 106.074C147.987 106.972 146.725 107.421 144.986 107.421ZM211.303 107.421C208.105 107.421 205.497 106.159 203.477 103.634C201.514 101.11 200.532 97.8003 200.532 93.7053C200.532 89.2176 201.57 84.9823 203.646 80.9995C205.721 76.9606 208.47 73.7351 211.892 71.323C215.37 68.8548 219.044 67.6207 222.915 67.6207C224.149 67.6207 224.962 67.8731 225.355 68.378C225.804 68.8267 226.168 69.6682 226.449 70.9023C227.515 70.6779 228.693 70.5657 229.983 70.5657C231.329 70.5657 232.367 70.9023 233.096 71.5754C233.825 72.2486 234.19 73.2022 234.19 74.4363C234.19 75.7265 233.909 77.9704 233.348 81.1678C232.731 84.5897 232.255 87.8713 231.918 91.0127C231.581 94.0979 231.413 97.5759 231.413 101.447C231.413 103.578 230.964 105.121 230.067 106.074C229.225 106.972 227.823 107.421 225.86 107.421C223.952 107.421 222.522 106.972 221.568 106.074C220.671 105.121 220.222 103.606 220.222 101.531L220.306 100.184C218.567 105.009 215.566 107.421 211.303 107.421ZM214.584 98.9222C216.155 98.9222 217.586 97.8283 218.876 95.6406C220.166 93.4528 221.316 89.5542 222.326 83.9446L223.924 75.446C221.624 75.5021 219.493 76.3997 217.529 78.1386C215.566 79.8215 213.995 82.0654 212.817 84.8702C211.639 87.675 211.05 90.648 211.05 93.7894C211.05 95.4723 211.359 96.7625 211.976 97.66C212.649 98.5015 213.519 98.9222 214.584 98.9222ZM357.482 107.421C355.35 107.421 353.836 106.299 352.938 104.055C352.097 101.811 351.676 98.221 351.676 93.2845C351.676 85.9921 352.714 79.0642 354.789 72.501C355.294 70.8742 356.107 69.6962 357.229 68.967C358.407 68.1816 360.034 67.7889 362.11 67.7889C363.232 67.7889 364.017 67.9292 364.466 68.2097C364.914 68.4901 365.139 69.0231 365.139 69.8084C365.139 70.7059 364.718 72.7254 363.877 75.8668C363.316 78.1106 362.867 80.074 362.53 81.7568C362.194 83.3836 361.913 85.4311 361.689 87.8993C363.204 83.5239 364.999 79.8215 367.074 76.7923C369.206 73.7632 371.365 71.5193 373.553 70.0608C375.797 68.5462 377.901 67.7889 379.864 67.7889C381.827 67.7889 383.202 68.2377 383.987 69.1353C384.829 70.0328 385.249 71.4071 385.249 73.2583C385.249 75.0534 384.716 78.3069 383.65 83.019C383.202 85.0384 382.893 86.553 382.725 87.5628C385.53 80.663 388.643 75.6424 392.065 72.501C395.487 69.3596 398.684 67.7889 401.657 67.7889C405.304 67.7889 407.127 69.6121 407.127 73.2583C407.127 75.446 406.51 79.4008 405.275 85.1226C404.21 90.0029 403.677 93.2285 403.677 94.7991C403.677 97.043 404.49 98.1649 406.117 98.1649C407.239 98.1649 408.557 97.4917 410.072 96.1454C411.642 94.743 413.718 92.4992 416.298 89.4139C416.971 88.6286 417.729 88.2359 418.57 88.2359C419.299 88.2359 419.86 88.5725 420.253 89.2456C420.702 89.9188 420.926 90.8444 420.926 92.0224C420.926 94.2662 420.393 96.0052 419.328 97.2393C416.915 100.212 414.307 102.653 411.502 104.56C408.753 106.467 405.612 107.421 402.078 107.421C399.217 107.421 397.057 106.607 395.599 104.981C394.14 103.298 393.411 100.886 393.411 97.7442C393.411 96.1735 393.804 93.3687 394.589 89.3298C395.318 85.7957 395.683 83.3556 395.683 82.0093C395.683 81.1117 395.375 80.663 394.757 80.663C394.028 80.663 392.99 81.6166 391.644 83.5239C390.298 85.375 388.952 87.8432 387.605 90.9285C386.259 94.0138 385.165 97.2674 384.324 100.689C383.707 103.382 382.977 105.177 382.136 106.074C381.351 106.972 380.06 107.421 378.265 107.421C376.414 107.421 375.012 106.551 374.058 104.812C373.161 103.017 372.712 100.857 372.712 98.3332C372.712 96.2015 372.992 93.1163 373.553 89.0774C374.002 85.4872 374.226 83.1312 374.226 82.0093C374.226 81.1117 373.918 80.663 373.301 80.663C372.459 80.663 371.394 81.6727 370.103 83.6921C368.813 85.7116 367.551 88.292 366.317 91.4334C365.139 94.5748 364.185 97.66 363.456 100.689C362.839 103.326 362.11 105.121 361.268 106.074C360.483 106.972 359.221 107.421 357.482 107.421ZM451.651 88.2359C452.38 88.2359 452.941 88.5725 453.333 89.2456C453.782 89.9188 454.007 90.8444 454.007 92.0224C454.007 94.2662 453.474 96.0052 452.408 97.2393C450.332 99.7636 447.387 102.092 443.573 104.223C439.814 106.355 435.775 107.421 431.456 107.421C425.566 107.421 420.994 105.822 417.741 102.625C414.487 99.4271 412.86 95.0516 412.86 89.4981C412.86 85.6275 413.674 82.0373 415.3 78.7277C416.927 75.3619 419.171 72.6973 422.032 70.734C424.949 68.7706 428.231 67.7889 431.877 67.7889C435.13 67.7889 437.739 68.7706 439.702 70.734C441.666 72.6412 442.647 75.2497 442.647 78.5594C442.647 82.43 441.245 85.7677 438.44 88.5725C435.691 91.3212 431.007 93.5089 424.388 95.1357C425.79 97.7161 428.455 99.0063 432.382 99.0063C434.906 99.0063 437.767 98.1368 440.964 96.3979C444.218 94.6028 447.023 92.2748 449.379 89.4139C450.052 88.6286 450.809 88.2359 451.651 88.2359ZM430.446 76.035C428.371 76.035 426.604 77.2411 425.145 79.6532C423.743 82.0654 423.042 84.9823 423.042 88.4042V88.5725C426.351 87.7871 428.96 86.6091 430.867 85.0384C432.774 83.4678 433.728 81.6446 433.728 79.5691C433.728 78.5033 433.419 77.6618 432.802 77.0448C432.241 76.3716 431.456 76.035 430.446 76.035ZM456.421 107.421C453.224 107.421 450.615 106.159 448.596 103.634C446.632 101.11 445.651 97.8003 445.651 93.7053C445.651 89.2176 446.688 84.9823 448.764 80.9995C450.84 76.9606 453.588 73.7351 457.01 71.323C460.488 68.8548 464.162 67.6207 468.033 67.6207C469.267 67.6207 470.08 67.8731 470.473 68.378C470.922 68.8267 471.287 69.6682 471.567 70.9023C472.633 70.6779 473.811 70.5657 475.101 70.5657C476.447 70.5657 477.485 70.9023 478.214 71.5754C478.944 72.2486 479.308 73.2022 479.308 74.4363C479.308 75.7265 479.028 77.9704 478.467 81.1678C477.85 84.5897 477.373 87.8713 477.036 91.0127C476.7 94.0979 476.532 97.5759 476.532 101.447C476.532 103.578 476.083 105.121 475.185 106.074C474.344 106.972 472.941 107.421 470.978 107.421C469.071 107.421 467.64 106.972 466.687 106.074C465.789 105.121 465.34 103.606 465.34 101.531L465.425 100.184C463.686 105.009 460.684 107.421 456.421 107.421ZM459.703 98.9222C461.273 98.9222 462.704 97.8283 463.994 95.6406C465.284 93.4528 466.434 89.5542 467.444 83.9446L469.043 75.446C466.743 75.5021 464.611 76.3997 462.648 78.1386C460.684 79.8215 459.114 82.0654 457.936 84.8702C456.758 87.675 456.169 90.648 456.169 93.7894C456.169 95.4723 456.477 96.7625 457.094 97.66C457.767 98.5015 458.637 98.9222 459.703 98.9222Z" fill="#2E2F31"/>
<path d="M305.501 29.7691C305.501 29.7691 311.387 14.9236 318.174 16.2271C325.746 17.6858 321.525 35.5934 321.525 35.5934L305.501 29.7691ZM285.41 27.2862C285.41 27.2862 278.272 13.1546 272.303 15.203C266.333 17.2513 270.699 35.8831 270.699 35.8831L285.41 27.2862Z" fill="#FFB903"/>
<path d="M268.361 80.3056C268.361 80.3056 278.944 77.4917 281.758 75.9813C284.158 74.6985 297.638 68.7914 298.652 50.5941C299.666 32.3968 286.817 27.1 285.069 26.6552C283.32 26.2207 277.01 27.9173 273.317 29.7588C271.744 30.545 268.361 32.821 268.361 32.821C268.361 32.821 261.657 25.8276 251.178 24.8137C240.698 23.7896 232.825 29.3243 232.68 30.0588C232.536 30.7829 236.612 45.0904 244.07 50.0665C246.243 51.5148 249.036 52.1666 250.95 52.4252C255.957 53.108 257.871 52.4873 257.871 52.4873C257.871 52.4873 257.147 60.2048 257.002 64.136C256.857 68.0672 256.774 73.6226 256.319 77.6366C256.03 80.2125 252.533 87.0508 252.44 92.0992C252.378 95.4511 268.361 80.3056 268.361 80.3056Z" fill="#BC8954"/>
<path d="M277.827 28.3105C277.827 28.3105 279.865 25.838 296.904 26.4173C313.942 26.9967 323.408 32.9762 323.408 32.9762C323.408 32.9762 329.284 28.4761 335.016 26.5208C343.53 23.6241 354.982 28.4967 355.882 30.3589C356.575 31.7762 352.675 44.3974 347.585 48.7114C341.906 53.5219 335.791 53.2219 335.791 53.2219C335.791 53.2219 334.447 62.0671 334.188 68.657C334.043 72.4434 334.56 76.3953 335.212 78.4126C336.526 82.4886 337.271 85.2922 337.923 90.2889C338.471 94.4581 338.564 98.5031 338.564 98.5031L270.989 81.4644L277.827 28.3105Z" fill="#DFDFDF"/>
<path d="M296.242 79.1367C308.821 79.4368 311.749 77.2436 320.325 77.8229C328.902 78.4022 339.826 87.4336 338.792 100.396C337.757 113.359 326.977 122.68 315.453 125.297C303.928 127.915 278.22 128.215 266.106 121.656C253.94 115.076 251.333 106.221 251.188 97.9134C251.043 89.6061 257.24 77.6781 270.678 76.2297C284.117 74.7814 283.827 78.8471 296.242 79.1367ZM329.533 43.1663C327.381 39.4006 329.533 33.4521 336.329 31.9003C343.126 30.3485 349.923 33.4521 349.923 33.4521C349.923 33.4521 347.844 41.418 343.126 44.5215C339.143 47.1492 332.636 48.5976 329.533 43.1663ZM254.188 32.2934C248.136 30.4106 240.263 32.8624 240.263 32.8624C240.263 32.8624 240.512 36.3591 242.995 39.742C244.484 41.7697 246.709 44.2008 250.226 45.3595C258.481 48.0803 261.564 43.1663 262.237 40.9317C262.93 38.6972 261.668 34.6211 254.188 32.2934Z" fill="#FFD3B0"/>
<path d="M284.954 62.2144C285.512 58.3406 283.502 54.8457 280.466 54.4082C277.429 53.9707 274.515 56.7563 273.956 60.6301C273.398 64.5039 275.408 67.9988 278.445 68.4363C281.481 68.8738 284.396 66.0882 284.954 62.2144Z" fill="#2E2F31"/>
<path d="M315.851 68.8988C318.882 68.4269 320.851 64.9048 320.248 61.0319C319.646 57.1591 316.699 54.4021 313.668 54.874C310.636 55.3459 308.667 58.8681 309.27 62.7409C309.873 66.6137 312.819 69.3707 315.851 68.8988Z" fill="#2E2F31"/>
<path d="M303.897 105.114C300.793 102.682 302.531 96.2684 307.683 92.689C313.125 88.9026 318.784 90.2889 319.818 92.5959C321.174 95.6063 319.622 97.4478 317.977 98.7099C316.415 99.8996 314.284 99.6824 312.928 100.458C311.573 101.234 310.984 103.272 309.142 104.927C307.435 106.448 304.932 105.91 303.897 105.114ZM270.109 93.0717C271.082 88.7061 278.044 88.8716 283.02 92.6786C288.276 96.7029 289.331 102.393 287.096 104.327C284.551 106.541 282.089 105.434 280.558 104.11C279.068 102.827 278.541 101.793 277.382 100.727C276.234 99.672 274.175 99.3617 272.044 98.1099C270.078 96.9616 269.696 94.9339 270.109 93.0717Z" fill="#2E2F31"/>
<path d="M2.91201 147.064V154.52H11.04V156.92H2.91201V164.6H12V167H1.09673e-05V144.664H12V147.064H2.91201ZM22.9343 164.312L28.3743 149.464H31.4783L24.5983 167H21.2063L14.3263 149.464H17.4623L22.9343 164.312ZM35.8478 146.616C35.2931 146.616 34.8238 146.424 34.4398 146.04C34.0558 145.656 33.8638 145.187 33.8638 144.632C33.8638 144.077 34.0558 143.608 34.4398 143.224C34.8238 142.84 35.2931 142.648 35.8478 142.648C36.3811 142.648 36.8291 142.84 37.1918 143.224C37.5758 143.608 37.7678 144.077 37.7678 144.632C37.7678 145.187 37.5758 145.656 37.1918 146.04C36.8291 146.424 36.3811 146.616 35.8478 146.616ZM37.2558 149.464V167H34.3438V149.464H37.2558ZM41.1308 158.168C41.1308 156.376 41.4934 154.808 42.2188 153.464C42.9441 152.099 43.9361 151.043 45.1948 150.296C46.4748 149.549 47.9041 149.176 49.4828 149.176C50.8481 149.176 52.1174 149.496 53.2908 150.136C54.4641 150.755 55.3601 151.576 55.9788 152.6V143.32H58.9228V167H55.9788V163.704C55.4028 164.749 54.5494 165.613 53.4188 166.296C52.2881 166.957 50.9654 167.288 49.4508 167.288C47.8934 167.288 46.4748 166.904 45.1948 166.136C43.9361 165.368 42.9441 164.291 42.2188 162.904C41.4934 161.517 41.1308 159.939 41.1308 158.168ZM55.9788 158.2C55.9788 156.877 55.7121 155.725 55.1788 154.744C54.6454 153.763 53.9201 153.016 53.0028 152.504C52.1068 151.971 51.1148 151.704 50.0268 151.704C48.9388 151.704 47.9468 151.96 47.0508 152.472C46.1548 152.984 45.4401 153.731 44.9068 154.712C44.3734 155.693 44.1068 156.845 44.1068 158.168C44.1068 159.512 44.3734 160.685 44.9068 161.688C45.4401 162.669 46.1548 163.427 47.0508 163.96C47.9468 164.472 48.9388 164.728 50.0268 164.728C51.1148 164.728 52.1068 164.472 53.0028 163.96C53.9201 163.427 54.6454 162.669 55.1788 161.688C55.7121 160.685 55.9788 159.523 55.9788 158.2ZM79.8438 157.56C79.8438 158.115 79.8118 158.701 79.7478 159.32H65.7318C65.8384 161.048 66.4251 162.403 67.4918 163.384C68.5798 164.344 69.8918 164.824 71.4278 164.824C72.6864 164.824 73.7318 164.536 74.5638 163.96C75.4171 163.363 76.0144 162.573 76.3558 161.592H79.4918C79.0224 163.277 78.0838 164.653 76.6758 165.72C75.2678 166.765 73.5184 167.288 71.4278 167.288C69.7638 167.288 68.2704 166.915 66.9478 166.168C65.6464 165.421 64.6224 164.365 63.8758 163C63.1291 161.613 62.7558 160.013 62.7558 158.2C62.7558 156.387 63.1184 154.797 63.8438 153.432C64.5691 152.067 65.5824 151.021 66.8838 150.296C68.2064 149.549 69.7211 149.176 71.4278 149.176C73.0918 149.176 74.5638 149.539 75.8438 150.264C77.1238 150.989 78.1051 151.992 78.7878 153.272C79.4918 154.531 79.8438 155.96 79.8438 157.56ZM76.8358 156.952C76.8358 155.843 76.5904 154.893 76.0998 154.104C75.6091 153.293 74.9371 152.685 74.0838 152.28C73.2518 151.853 72.3238 151.64 71.2998 151.64C69.8278 151.64 68.5691 152.109 67.5238 153.048C66.4998 153.987 65.9131 155.288 65.7638 156.952H76.8358ZM92.2315 149.144C94.3648 149.144 96.0928 149.795 97.4155 151.096C98.7382 152.376 99.3995 154.232 99.3995 156.664V167H96.5195V157.08C96.5195 155.331 96.0822 153.997 95.2075 153.08C94.3328 152.141 93.1382 151.672 91.6235 151.672C90.0875 151.672 88.8608 152.152 87.9435 153.112C87.0475 154.072 86.5995 155.469 86.5995 157.304V167H83.6875V149.464H86.5995V151.96C87.1755 151.064 87.9542 150.371 88.9355 149.88C89.9382 149.389 91.0368 149.144 92.2315 149.144ZM107.708 151.864V162.2C107.708 163.053 107.89 163.661 108.252 164.024C108.615 164.365 109.244 164.536 110.14 164.536H112.284V167H109.66C108.039 167 106.823 166.627 106.012 165.88C105.202 165.133 104.796 163.907 104.796 162.2V151.864H102.524V149.464H104.796V145.048H107.708V149.464H112.284V151.864H107.708ZM109.148 168.568C109.383 169.443 109.5 170.328 109.5 171.224C109.5 172.483 109.223 173.411 108.668 174.008C108.135 174.605 107.335 174.904 106.268 174.904V173.56C107.292 173.56 107.804 172.963 107.804 171.768V171.192H106.268V168.568H109.148ZM114.725 158.168C114.725 156.376 115.087 154.808 115.813 153.464C116.538 152.099 117.53 151.043 118.789 150.296C120.069 149.549 121.487 149.176 123.045 149.176C124.581 149.176 125.914 149.507 127.045 150.168C128.175 150.829 129.018 151.661 129.573 152.664V149.464H132.517V167H129.573V163.736C128.997 164.76 128.133 165.613 126.981 166.296C125.85 166.957 124.527 167.288 123.013 167.288C121.455 167.288 120.047 166.904 118.789 166.136C117.53 165.368 116.538 164.291 115.813 162.904C115.087 161.517 114.725 159.939 114.725 158.168ZM129.573 158.2C129.573 156.877 129.306 155.725 128.773 154.744C128.239 153.763 127.514 153.016 126.597 152.504C125.701 151.971 124.709 151.704 123.621 151.704C122.533 151.704 121.541 151.96 120.645 152.472C119.749 152.984 119.034 153.731 118.501 154.712C117.967 155.693 117.701 156.845 117.701 158.168C117.701 159.512 117.967 160.685 118.501 161.688C119.034 162.669 119.749 163.427 120.645 163.96C121.541 164.472 122.533 164.728 123.621 164.728C124.709 164.728 125.701 164.472 126.597 163.96C127.514 163.427 128.239 162.669 128.773 161.688C129.306 160.685 129.573 159.523 129.573 158.2ZM128.741 143.576C128.741 144.792 128.335 145.795 127.525 146.584C126.735 147.352 125.626 147.736 124.197 147.736C122.767 147.736 121.647 147.352 120.837 146.584C120.026 145.795 119.621 144.781 119.621 143.544V143H121.349C121.349 143.811 121.573 144.429 122.021 144.856C122.469 145.261 123.194 145.464 124.197 145.464C125.178 145.464 125.893 145.261 126.341 144.856C126.789 144.429 127.013 143.811 127.013 143H128.741V143.576ZM144.881 158.2C144.881 156.387 145.243 154.808 145.969 153.464C146.694 152.099 147.697 151.043 148.977 150.296C150.278 149.549 151.761 149.176 153.425 149.176C155.579 149.176 157.35 149.699 158.737 150.744C160.145 151.789 161.073 153.24 161.521 155.096H158.385C158.086 154.029 157.499 153.187 156.625 152.568C155.771 151.949 154.705 151.64 153.425 151.64C151.761 151.64 150.417 152.216 149.393 153.368C148.369 154.499 147.857 156.109 147.857 158.2C147.857 160.312 148.369 161.944 149.393 163.096C150.417 164.248 151.761 164.824 153.425 164.824C154.705 164.824 155.771 164.525 156.625 163.928C157.478 163.331 158.065 162.477 158.385 161.368H161.521C161.051 163.16 160.113 164.6 158.705 165.688C157.297 166.755 155.537 167.288 153.425 167.288C151.761 167.288 150.278 166.915 148.977 166.168C147.697 165.421 146.694 164.365 145.969 163C145.243 161.635 144.881 160.035 144.881 158.2ZM168.318 143.32V167H165.406V143.32H168.318ZM172.193 158.168C172.193 156.376 172.556 154.808 173.281 153.464C174.007 152.099 174.999 151.043 176.257 150.296C177.537 149.549 178.956 149.176 180.513 149.176C182.049 149.176 183.383 149.507 184.513 150.168C185.644 150.829 186.487 151.661 187.041 152.664V149.464H189.985V167H187.041V163.736C186.465 164.76 185.601 165.613 184.449 166.296C183.319 166.957 181.996 167.288 180.481 167.288C178.924 167.288 177.516 166.904 176.257 166.136C174.999 165.368 174.007 164.291 173.281 162.904C172.556 161.517 172.193 159.939 172.193 158.168ZM187.041 158.2C187.041 156.877 186.775 155.725 186.241 154.744C185.708 153.763 184.983 153.016 184.065 152.504C183.169 151.971 182.177 151.704 181.089 151.704C180.001 151.704 179.009 151.96 178.113 152.472C177.217 152.984 176.503 153.731 175.969 154.712C175.436 155.693 175.169 156.845 175.169 158.168C175.169 159.512 175.436 160.685 175.969 161.688C176.503 162.669 177.217 163.427 178.113 163.96C179.009 164.472 180.001 164.728 181.089 164.728C182.177 164.728 183.169 164.472 184.065 163.96C184.983 163.427 185.708 162.669 186.241 161.688C186.775 160.685 187.041 159.523 187.041 158.2ZM197.818 152.312C198.33 151.309 199.056 150.531 199.994 149.976C200.954 149.421 202.117 149.144 203.482 149.144V152.152H202.714C199.45 152.152 197.818 153.923 197.818 157.464V167H194.906V149.464H197.818V152.312ZM205.756 158.168C205.756 156.376 206.118 154.808 206.844 153.464C207.569 152.099 208.561 151.043 209.82 150.296C211.1 149.549 212.518 149.176 214.076 149.176C215.612 149.176 216.945 149.507 218.076 150.168C219.206 150.829 220.049 151.661 220.604 152.664V149.464H223.548V167H220.604V163.736C220.028 164.76 219.164 165.613 218.012 166.296C216.881 166.957 215.558 167.288 214.044 167.288C212.486 167.288 211.078 166.904 209.82 166.136C208.561 165.368 207.569 164.291 206.844 162.904C206.118 161.517 205.756 159.939 205.756 158.168ZM220.604 158.2C220.604 156.877 220.337 155.725 219.804 154.744C219.27 153.763 218.545 153.016 217.628 152.504C216.732 151.971 215.74 151.704 214.652 151.704C213.564 151.704 212.572 151.96 211.676 152.472C210.78 152.984 210.065 153.731 209.532 154.712C208.998 155.693 208.732 156.845 208.732 158.168C208.732 159.512 208.998 160.685 209.532 161.688C210.065 162.669 210.78 163.427 211.676 163.96C212.572 164.472 213.564 164.728 214.652 164.728C215.74 164.728 216.732 164.472 217.628 163.96C218.545 163.427 219.27 162.669 219.804 161.688C220.337 160.685 220.604 159.523 220.604 158.2ZM219.772 143.576C219.772 144.792 219.366 145.795 218.556 146.584C217.766 147.352 216.657 147.736 215.228 147.736C213.798 147.736 212.678 147.352 211.868 146.584C211.057 145.795 210.652 144.781 210.652 143.544V143H212.38C212.38 143.811 212.604 144.429 213.052 144.856C213.5 145.261 214.225 145.464 215.228 145.464C216.209 145.464 216.924 145.261 217.372 144.856C217.82 144.429 218.044 143.811 218.044 143H219.772V143.576ZM231.477 162.968L227.893 171.576H225.941L228.277 162.968H231.477ZM250.48 151.864H246.8V167H243.888V151.864H241.616V149.464H243.888V148.216C243.888 146.253 244.389 144.824 245.392 143.928C246.416 143.011 248.048 142.552 250.288 142.552V144.984C249.008 144.984 248.101 145.24 247.568 145.752C247.056 146.243 246.8 147.064 246.8 148.216V149.464H250.48V151.864ZM269.875 157.56C269.875 158.115 269.843 158.701 269.779 159.32H255.763C255.87 161.048 256.456 162.403 257.523 163.384C258.611 164.344 259.923 164.824 261.459 164.824C262.718 164.824 263.763 164.536 264.595 163.96C265.448 163.363 266.046 162.573 266.387 161.592H269.523C269.054 163.277 268.115 164.653 266.707 165.72C265.299 166.765 263.55 167.288 261.459 167.288C259.795 167.288 258.302 166.915 256.979 166.168C255.678 165.421 254.654 164.365 253.907 163C253.16 161.613 252.787 160.013 252.787 158.2C252.787 156.387 253.15 154.797 253.875 153.432C254.6 152.067 255.614 151.021 256.915 150.296C258.238 149.549 259.752 149.176 261.459 149.176C263.123 149.176 264.595 149.539 265.875 150.264C267.155 150.989 268.136 151.992 268.819 153.272C269.523 154.531 269.875 155.96 269.875 157.56ZM266.867 156.952C266.867 155.843 266.622 154.893 266.131 154.104C265.64 153.293 264.968 152.685 264.115 152.28C263.283 151.853 262.355 151.64 261.331 151.64C259.859 151.64 258.6 152.109 257.555 153.048C256.531 153.987 255.944 155.288 255.795 156.952H266.867ZM276.631 152.312C277.143 151.309 277.868 150.531 278.807 149.976C279.767 149.421 280.929 149.144 282.295 149.144V152.152H281.527C278.263 152.152 276.631 153.923 276.631 157.464V167H273.719V149.464H276.631V152.312ZM306.744 149.144C308.11 149.144 309.326 149.432 310.392 150.008C311.459 150.563 312.302 151.405 312.92 152.536C313.539 153.667 313.848 155.043 313.848 156.664V167H310.968V157.08C310.968 155.331 310.531 153.997 309.656 153.08C308.803 152.141 307.64 151.672 306.168 151.672C304.654 151.672 303.448 152.163 302.552 153.144C301.656 154.104 301.208 155.501 301.208 157.336V167H298.328V157.08C298.328 155.331 297.891 153.997 297.016 153.08C296.163 152.141 295 151.672 293.528 151.672C292.014 151.672 290.808 152.163 289.912 153.144C289.016 154.104 288.568 155.501 288.568 157.336V167H285.656V149.464H288.568V151.992C289.144 151.075 289.912 150.371 290.872 149.88C291.854 149.389 292.931 149.144 294.104 149.144C295.576 149.144 296.878 149.475 298.008 150.136C299.139 150.797 299.982 151.768 300.536 153.048C301.027 151.811 301.838 150.851 302.968 150.168C304.099 149.485 305.358 149.144 306.744 149.144ZM317.537 158.168C317.537 156.376 317.9 154.808 318.625 153.464C319.35 152.099 320.342 151.043 321.601 150.296C322.881 149.549 324.3 149.176 325.857 149.176C327.393 149.176 328.726 149.507 329.857 150.168C330.988 150.829 331.83 151.661 332.385 152.664V149.464H335.329V167H332.385V163.736C331.809 164.76 330.945 165.613 329.793 166.296C328.662 166.957 327.34 167.288 325.825 167.288C324.268 167.288 322.86 166.904 321.601 166.136C320.342 165.368 319.35 164.291 318.625 162.904C317.9 161.517 317.537 159.939 317.537 158.168ZM332.385 158.2C332.385 156.877 332.118 155.725 331.585 154.744C331.052 153.763 330.326 153.016 329.409 152.504C328.513 151.971 327.521 151.704 326.433 151.704C325.345 151.704 324.353 151.96 323.457 152.472C322.561 152.984 321.846 153.731 321.313 154.712C320.78 155.693 320.513 156.845 320.513 158.168C320.513 159.512 320.78 160.685 321.313 161.688C321.846 162.669 322.561 163.427 323.457 163.96C324.353 164.472 325.345 164.728 326.433 164.728C327.521 164.728 328.513 164.472 329.409 163.96C330.326 163.427 331.052 162.669 331.585 161.688C332.118 160.685 332.385 159.523 332.385 158.2ZM331.553 143.576C331.553 144.792 331.148 145.795 330.337 146.584C329.548 147.352 328.438 147.736 327.009 147.736C325.58 147.736 324.46 147.352 323.649 146.584C322.838 145.795 322.433 144.781 322.433 143.544V143H324.161C324.161 143.811 324.385 144.429 324.833 144.856C325.281 145.261 326.006 145.464 327.009 145.464C327.99 145.464 328.705 145.261 329.153 144.856C329.601 144.429 329.825 143.811 329.825 143H331.553V143.576ZM351.693 152.696C352.269 151.693 353.123 150.861 354.253 150.2C355.405 149.517 356.739 149.176 358.253 149.176C359.811 149.176 361.219 149.549 362.477 150.296C363.757 151.043 364.76 152.099 365.485 153.464C366.211 154.808 366.573 156.376 366.573 158.168C366.573 159.939 366.211 161.517 365.485 162.904C364.76 164.291 363.757 165.368 362.477 166.136C361.219 166.904 359.811 167.288 358.253 167.288C356.76 167.288 355.437 166.957 354.285 166.296C353.155 165.613 352.291 164.771 351.693 163.768V175.32H348.781V149.464H351.693V152.696ZM363.597 158.168C363.597 156.845 363.331 155.693 362.797 154.712C362.264 153.731 361.539 152.984 360.621 152.472C359.725 151.96 358.733 151.704 357.645 151.704C356.579 151.704 355.587 151.971 354.669 152.504C353.773 153.016 353.048 153.773 352.493 154.776C351.96 155.757 351.693 156.899 351.693 158.2C351.693 159.523 351.96 160.685 352.493 161.688C353.048 162.669 353.773 163.427 354.669 163.96C355.587 164.472 356.579 164.728 357.645 164.728C358.733 164.728 359.725 164.472 360.621 163.96C361.539 163.427 362.264 162.669 362.797 161.688C363.331 160.685 363.597 159.512 363.597 158.168ZM373.318 152.312C373.83 151.309 374.556 150.531 375.494 149.976C376.454 149.421 377.617 149.144 378.982 149.144V152.152H378.214C374.95 152.152 373.318 153.923 373.318 157.464V167H370.406V149.464H373.318V152.312ZM389.992 167.288C388.349 167.288 386.856 166.915 385.512 166.168C384.189 165.421 383.144 164.365 382.376 163C381.629 161.613 381.256 160.013 381.256 158.2C381.256 156.408 381.64 154.829 382.408 153.464C383.197 152.077 384.264 151.021 385.608 150.296C386.952 149.549 388.456 149.176 390.12 149.176C391.784 149.176 393.288 149.549 394.632 150.296C395.976 151.021 397.032 152.067 397.8 153.432C398.589 154.797 398.984 156.387 398.984 158.2C398.984 160.013 398.578 161.613 397.768 163C396.978 164.365 395.901 165.421 394.536 166.168C393.17 166.915 391.656 167.288 389.992 167.288ZM389.992 164.728C391.037 164.728 392.018 164.483 392.936 163.992C393.853 163.501 394.589 162.765 395.144 161.784C395.72 160.803 396.008 159.608 396.008 158.2C396.008 156.792 395.73 155.597 395.176 154.616C394.621 153.635 393.896 152.909 393 152.44C392.104 151.949 391.133 151.704 390.088 151.704C389.021 151.704 388.04 151.949 387.144 152.44C386.269 152.909 385.565 153.635 385.032 154.616C384.498 155.597 384.232 156.792 384.232 158.2C384.232 159.629 384.488 160.835 385 161.816C385.533 162.797 386.237 163.533 387.112 164.024C387.986 164.493 388.946 164.728 389.992 164.728ZM409.021 167.288C407.677 167.288 406.471 167.064 405.405 166.616C404.338 166.147 403.495 165.507 402.877 164.696C402.258 163.864 401.917 162.915 401.853 161.848H404.861C404.946 162.723 405.351 163.437 406.077 163.992C406.823 164.547 407.794 164.824 408.989 164.824C410.098 164.824 410.973 164.579 411.613 164.088C412.253 163.597 412.573 162.979 412.573 162.232C412.573 161.464 412.231 160.899 411.549 160.536C410.866 160.152 409.81 159.779 408.381 159.416C407.079 159.075 406.013 158.733 405.181 158.392C404.37 158.029 403.666 157.507 403.069 156.824C402.493 156.12 402.205 155.203 402.205 154.072C402.205 153.176 402.471 152.355 403.005 151.608C403.538 150.861 404.295 150.275 405.277 149.848C406.258 149.4 407.378 149.176 408.637 149.176C410.578 149.176 412.146 149.667 413.341 150.648C414.535 151.629 415.175 152.973 415.261 154.68H412.349C412.285 153.763 411.911 153.027 411.229 152.472C410.567 151.917 409.671 151.64 408.541 151.64C407.495 151.64 406.663 151.864 406.045 152.312C405.426 152.76 405.117 153.347 405.117 154.072C405.117 154.648 405.298 155.128 405.661 155.512C406.045 155.875 406.514 156.173 407.069 156.408C407.645 156.621 408.434 156.867 409.437 157.144C410.695 157.485 411.719 157.827 412.509 158.168C413.298 158.488 413.97 158.979 414.525 159.64C415.101 160.301 415.399 161.165 415.421 162.232C415.421 163.192 415.154 164.056 414.621 164.824C414.087 165.592 413.33 166.2 412.349 166.648C411.389 167.075 410.279 167.288 409.021 167.288ZM422.443 152.696C423.019 151.693 423.873 150.861 425.003 150.2C426.155 149.517 427.489 149.176 429.003 149.176C430.561 149.176 431.969 149.549 433.227 150.296C434.507 151.043 435.51 152.099 436.235 153.464C436.961 154.808 437.323 156.376 437.323 158.168C437.323 159.939 436.961 161.517 436.235 162.904C435.51 164.291 434.507 165.368 433.227 166.136C431.969 166.904 430.561 167.288 429.003 167.288C427.51 167.288 426.187 166.957 425.035 166.296C423.905 165.613 423.041 164.771 422.443 163.768V175.32H419.531V149.464H422.443V152.696ZM434.347 158.168C434.347 156.845 434.081 155.693 433.547 154.712C433.014 153.731 432.289 152.984 431.371 152.472C430.475 151.96 429.483 151.704 428.395 151.704C427.329 151.704 426.337 151.971 425.419 152.504C424.523 153.016 423.798 153.773 423.243 154.776C422.71 155.757 422.443 156.899 422.443 158.2C422.443 159.523 422.71 160.685 423.243 161.688C423.798 162.669 424.523 163.427 425.419 163.96C426.337 164.472 427.329 164.728 428.395 164.728C429.483 164.728 430.475 164.472 431.371 163.96C432.289 163.427 433.014 162.669 433.547 161.688C434.081 160.685 434.347 159.512 434.347 158.168ZM457.156 157.56C457.156 158.115 457.124 158.701 457.06 159.32H443.044C443.151 161.048 443.738 162.403 444.804 163.384C445.892 164.344 447.204 164.824 448.74 164.824C449.999 164.824 451.044 164.536 451.876 163.96C452.73 163.363 453.327 162.573 453.668 161.592H456.804C456.335 163.277 455.396 164.653 453.988 165.72C452.58 166.765 450.831 167.288 448.74 167.288C447.076 167.288 445.583 166.915 444.26 166.168C442.959 165.421 441.935 164.365 441.188 163C440.442 161.613 440.068 160.013 440.068 158.2C440.068 156.387 440.431 154.797 441.156 153.432C441.882 152.067 442.895 151.021 444.196 150.296C445.519 149.549 447.034 149.176 448.74 149.176C450.404 149.176 451.876 149.539 453.156 150.264C454.436 150.989 455.418 151.992 456.1 153.272C456.804 154.531 457.156 155.96 457.156 157.56ZM454.148 156.952C454.148 155.843 453.903 154.893 453.412 154.104C452.922 153.293 452.25 152.685 451.396 152.28C450.564 151.853 449.636 151.64 448.612 151.64C447.14 151.64 445.882 152.109 444.836 153.048C443.812 153.987 443.226 155.288 443.076 156.952H454.148ZM463.912 152.312C464.424 151.309 465.149 150.531 466.088 149.976C467.048 149.421 468.211 149.144 469.576 149.144V152.152H468.808C465.544 152.152 463.912 153.923 463.912 157.464V167H461V149.464H463.912V152.312ZM471.85 158.168C471.85 156.376 472.212 154.808 472.938 153.464C473.663 152.099 474.655 151.043 475.914 150.296C477.194 149.549 478.612 149.176 480.17 149.176C481.706 149.176 483.039 149.507 484.17 150.168C485.3 150.829 486.143 151.661 486.698 152.664V149.464H489.642V167H486.698V163.736C486.122 164.76 485.258 165.613 484.106 166.296C482.975 166.957 481.652 167.288 480.138 167.288C478.58 167.288 477.172 166.904 475.914 166.136C474.655 165.368 473.663 164.291 472.938 162.904C472.212 161.517 471.85 159.939 471.85 158.168ZM486.698 158.2C486.698 156.877 486.431 155.725 485.898 154.744C485.364 153.763 484.639 153.016 483.722 152.504C482.826 151.971 481.834 151.704 480.746 151.704C479.658 151.704 478.666 151.96 477.77 152.472C476.874 152.984 476.159 153.731 475.626 154.712C475.092 155.693 474.826 156.845 474.826 158.168C474.826 159.512 475.092 160.685 475.626 161.688C476.159 162.669 476.874 163.427 477.77 163.96C478.666 164.472 479.658 164.728 480.746 164.728C481.834 164.728 482.826 164.472 483.722 163.96C484.639 163.427 485.364 162.669 485.898 161.688C486.431 160.685 486.698 159.523 486.698 158.2ZM485.866 143.576C485.866 144.792 485.46 145.795 484.65 146.584C483.86 147.352 482.751 147.736 481.322 147.736C479.892 147.736 478.772 147.352 477.962 146.584C477.151 145.795 476.746 144.781 476.746 143.544V143H478.474C478.474 143.811 478.698 144.429 479.146 144.856C479.594 145.261 480.319 145.464 481.322 145.464C482.303 145.464 483.018 145.261 483.466 144.856C483.914 144.429 484.138 143.811 484.138 143H485.866V143.576ZM495.491 167.192C494.936 167.192 494.467 167 494.083 166.616C493.699 166.232 493.507 165.763 493.507 165.208C493.507 164.653 493.699 164.184 494.083 163.8C494.467 163.416 494.936 163.224 495.491 163.224C496.024 163.224 496.472 163.416 496.835 163.8C497.219 164.184 497.411 164.653 497.411 165.208C497.411 165.763 497.219 166.232 496.835 166.616C496.472 167 496.024 167.192 495.491 167.192Z" fill="#2E2F31"/>
</svg>
